solid OpenSCAD_Model
  facet normal -1 0 0
    outer loop
      vertex -28 37.5 -12
      vertex -28 7.63426 -5
      vertex -28 37.5 0.000999451
    endloop
  endfacet
  facet normal -1 0 0
    outer loop
      vertex -28 37.5 -12
      vertex -28 -7.63426 -5
      vertex -28 7.63426 -5
    endloop
  endfacet
  facet normal -1 0 0
    outer loop
      vertex -28 -7.63426 -5
      vertex -28 -10.5 0
      vertex -28 -7.63426 0.000999451
    endloop
  endfacet
  facet normal -1 0 0
    outer loop
      vertex -28 -37.5 -12
      vertex -28 -7.63426 -5
      vertex -28 37.5 -12
    endloop
  endfacet
  facet normal -1 0 0
    outer loop
      vertex -28 -37.5 -12
      vertex -28 -10.5 0
      vertex -28 -7.63426 -5
    endloop
  endfacet
  facet normal -1 -0 0
    outer loop
      vertex -28 -10.5 0
      vertex -28 -37.5 -12
      vertex -28 -37.5 0
    endloop
  endfacet
  facet normal -1 -0 0
    outer loop
      vertex -28 37.5 0.000999451
      vertex -28 7.63426 -5
      vertex -28 7.63426 0.000999451
    endloop
  endfacet
  facet normal -1 -0 0
    outer loop
      vertex -28 -7.63426 0.000999451
      vertex -28 -10.5 0
      vertex -28 -10.5 0.000999451
    endloop
  endfacet
  facet normal 1 0 0
    outer loop
      vertex 28 -25 0.000999451
      vertex 28 -37.5 -5
      vertex 28 -25 0
    endloop
  endfacet
  facet normal 1 -0 0
    outer loop
      vertex 28 -42 0.000999451
      vertex 28 -37.5 -5
      vertex 28 -25 0.000999451
    endloop
  endfacet
  facet normal 1 0 0
    outer loop
      vertex 28 -37.5 -5
      vertex 28 -42 0.000999451
      vertex 28 -42 -5
    endloop
  endfacet
  facet normal 1 0 0
    outer loop
      vertex 28 42 0.000999451
      vertex 28 37.5 -5
      vertex 28 42 -5
    endloop
  endfacet
  facet normal 1 -0 0
    outer loop
      vertex 28 25 0.000999451
      vertex 28 37.5 -5
      vertex 28 42 0.000999451
    endloop
  endfacet
  facet normal 1 -0 0
    outer loop
      vertex 28 25 0
      vertex 28 37.5 -5
      vertex 28 25 0.000999451
    endloop
  endfacet
  facet normal 1 0 0
    outer loop
      vertex 28 37.5 -5
      vertex 28 25 0
      vertex 28 37.5 -12
    endloop
  endfacet
  facet normal 1 -0 0
    outer loop
      vertex 28 -25 0
      vertex 28 37.5 -12
      vertex 28 25 0
    endloop
  endfacet
  facet normal 1 0 0
    outer loop
      vertex 28 -37.5 -12
      vertex 28 -25 0
      vertex 28 -37.5 -5
    endloop
  endfacet
  facet normal 1 0 0
    outer loop
      vertex 28 -25 0
      vertex 28 -37.5 -12
      vertex 28 37.5 -12
    endloop
  endfacet
  facet normal 0 1 0
    outer loop
      vertex 28 37.5 -5
      vertex 28 37.5 -12
      vertex 11.9988 37.5 -5
    endloop
  endfacet
  facet normal 0 1 -0
    outer loop
      vertex 11.9988 37.5 -5
      vertex -28 37.5 0.000999451
      vertex 11.9988 37.5 0.000999451
    endloop
  endfacet
  facet normal 0 1 0
    outer loop
      vertex -28 37.5 -12
      vertex 11.9988 37.5 -5
      vertex 28 37.5 -12
    endloop
  endfacet
  facet normal 0 1 0
    outer loop
      vertex 11.9988 37.5 -5
      vertex -28 37.5 -12
      vertex -28 37.5 0.000999451
    endloop
  endfacet
  facet normal -0 0 -1
    outer loop
      vertex 21.375 -30.7175 -12
      vertex -21.1636 -30.8711 -12
      vertex 21.375 30.7175 -12
    endloop
  endfacet
  facet normal 0 0 -1
    outer loop
      vertex 21.375 30.7175 -12
      vertex -20.8581 31.2916 -12
      vertex -20.75 31.8 -12
    endloop
  endfacet
  facet normal 0 0 -1
    outer loop
      vertex -21.1636 30.8711 -12
      vertex 21.375 30.7175 -12
      vertex -21.1636 -30.8711 -12
    endloop
  endfacet
  facet normal 0 0 -1
    outer loop
      vertex 21.375 30.7175 -12
      vertex -21.1636 30.8711 -12
      vertex -20.8581 31.2916 -12
    endloop
  endfacet
  facet normal 0 0 -1
    outer loop
      vertex -21.6137 -30.6112 -12
      vertex -21.1636 30.8711 -12
      vertex -21.1636 -30.8711 -12
    endloop
  endfacet
  facet normal 0 0 -1
    outer loop
      vertex -21.6137 -30.6112 -12
      vertex -21.6137 30.6112 -12
      vertex -21.1636 30.8711 -12
    endloop
  endfacet
  facet normal 0 0 -1
    outer loop
      vertex -22.1307 -30.5568 -12
      vertex -21.6137 30.6112 -12
      vertex -21.6137 -30.6112 -12
    endloop
  endfacet
  facet normal 0 0 -1
    outer loop
      vertex -22.1307 -30.5568 -12
      vertex -22.1307 30.5568 -12
      vertex -21.6137 30.6112 -12
    endloop
  endfacet
  facet normal 0 0 -1
    outer loop
      vertex -22.625 -30.7175 -12
      vertex -22.1307 30.5568 -12
      vertex -22.1307 -30.5568 -12
    endloop
  endfacet
  facet normal 0 0 -1
    outer loop
      vertex -22.625 -30.7175 -12
      vertex -22.625 30.7175 -12
      vertex -22.1307 30.5568 -12
    endloop
  endfacet
  facet normal 0 0 -1
    outer loop
      vertex -23.0113 -31.0653 -12
      vertex -22.625 30.7175 -12
      vertex -22.625 -30.7175 -12
    endloop
  endfacet
  facet normal 0 0 -1
    outer loop
      vertex -23.0113 -31.0653 -12
      vertex -23.0113 31.0653 -12
      vertex -22.625 30.7175 -12
    endloop
  endfacet
  facet normal 0 0 -1
    outer loop
      vertex -28 -37.5 -12
      vertex -23.0113 -31.0653 -12
      vertex -23.2227 -31.5401 -12
    endloop
  endfacet
  facet normal -0 0 -1
    outer loop
      vertex -23.0113 -31.0653 -12
      vertex -28 -37.5 -12
      vertex -23.0113 31.0653 -12
    endloop
  endfacet
  facet normal 0 0 -1
    outer loop
      vertex 23.1419 31.2916 -12
      vertex 28 37.5 -12
      vertex 23.1419 -31.2916 -12
    endloop
  endfacet
  facet normal 0 0 -1
    outer loop
      vertex 28 37.5 -12
      vertex 23.1419 31.2916 -12
      vertex 23.25 31.8 -12
    endloop
  endfacet
  facet normal 0 0 -1
    outer loop
      vertex 22.8364 -30.8711 -12
      vertex 23.1419 31.2916 -12
      vertex 23.1419 -31.2916 -12
    endloop
  endfacet
  facet normal 0 0 -1
    outer loop
      vertex 22.8364 -30.8711 -12
      vertex 22.8364 30.8711 -12
      vertex 23.1419 31.2916 -12
    endloop
  endfacet
  facet normal 0 0 -1
    outer loop
      vertex 22.3863 -30.6112 -12
      vertex 22.8364 30.8711 -12
      vertex 22.8364 -30.8711 -12
    endloop
  endfacet
  facet normal 0 0 -1
    outer loop
      vertex 22.3863 -30.6112 -12
      vertex 22.3863 30.6112 -12
      vertex 22.8364 30.8711 -12
    endloop
  endfacet
  facet normal 0 0 -1
    outer loop
      vertex 21.8693 -30.5568 -12
      vertex 22.3863 30.6112 -12
      vertex 22.3863 -30.6112 -12
    endloop
  endfacet
  facet normal 0 0 -1
    outer loop
      vertex 21.8693 -30.5568 -12
      vertex 21.8693 30.5568 -12
      vertex 22.3863 30.6112 -12
    endloop
  endfacet
  facet normal 0 0 -1
    outer loop
      vertex 21.375 -30.7175 -12
      vertex 21.8693 30.5568 -12
      vertex 21.8693 -30.5568 -12
    endloop
  endfacet
  facet normal 0 0 -1
    outer loop
      vertex 21.375 -30.7175 -12
      vertex 21.375 30.7175 -12
      vertex 21.8693 30.5568 -12
    endloop
  endfacet
  facet normal 0 0 -1
    outer loop
      vertex 20.7773 -31.5401 -12
      vertex -20.8581 -31.2916 -12
      vertex 20.9887 -31.0653 -12
    endloop
  endfacet
  facet normal 0 0 -1
    outer loop
      vertex -21.1636 -30.8711 -12
      vertex 20.9887 -31.0653 -12
      vertex -20.8581 -31.2916 -12
    endloop
  endfacet
  facet normal 0 0 -1
    outer loop
      vertex -20.8581 -31.2916 -12
      vertex 20.7773 -31.5401 -12
      vertex -20.75 -31.8 -12
    endloop
  endfacet
  facet normal 0 0 -1
    outer loop
      vertex 20.9887 -31.0653 -12
      vertex -21.1636 -30.8711 -12
      vertex 21.375 -30.7175 -12
    endloop
  endfacet
  facet normal 0 0 -1
    outer loop
      vertex 23.1419 -31.2916 -12
      vertex 28 -37.5 -12
      vertex 23.25 -31.8 -12
    endloop
  endfacet
  facet normal 0 0 -1
    outer loop
      vertex 28 -37.5 -12
      vertex 23.1419 -32.3084 -12
      vertex 23.25 -31.8 -12
    endloop
  endfacet
  facet normal 0 0 -1
    outer loop
      vertex 28 -37.5 -12
      vertex 22.8364 -32.7289 -12
      vertex 23.1419 -32.3084 -12
    endloop
  endfacet
  facet normal 0 0 -1
    outer loop
      vertex 28 -37.5 -12
      vertex 22.3863 -32.9888 -12
      vertex 22.8364 -32.7289 -12
    endloop
  endfacet
  facet normal 0 0 -1
    outer loop
      vertex 28 -37.5 -12
      vertex 21.8693 -33.0432 -12
      vertex 22.3863 -32.9888 -12
    endloop
  endfacet
  facet normal 0 0 -1
    outer loop
      vertex 28 -37.5 -12
      vertex 21.375 -32.8825 -12
      vertex 21.8693 -33.0432 -12
    endloop
  endfacet
  facet normal 0 0 -1
    outer loop
      vertex -20.75 -31.8 -12
      vertex 20.7773 -31.5401 -12
      vertex 20.7773 -32.0599 -12
    endloop
  endfacet
  facet normal 0 0 -1
    outer loop
      vertex 21.375 30.7175 -12
      vertex -20.75 31.8 -12
      vertex 20.9887 31.0653 -12
    endloop
  endfacet
  facet normal 0 0 -1
    outer loop
      vertex 20.9887 31.0653 -12
      vertex -20.75 31.8 -12
      vertex 20.7773 31.5401 -12
    endloop
  endfacet
  facet normal 0 0 -1
    outer loop
      vertex -20.8581 -32.3084 -12
      vertex 20.7773 -32.0599 -12
      vertex 20.9887 -32.5347 -12
    endloop
  endfacet
  facet normal 0 0 -1
    outer loop
      vertex -21.1636 -32.7289 -12
      vertex 20.9887 -32.5347 -12
      vertex 21.375 -32.8825 -12
    endloop
  endfacet
  facet normal 0 0 -1
    outer loop
      vertex -21.1636 -32.7289 -12
      vertex 21.375 -32.8825 -12
      vertex 28 -37.5 -12
    endloop
  endfacet
  facet normal -0 0 -1
    outer loop
      vertex 20.7773 -32.0599 -12
      vertex -20.8581 -32.3084 -12
      vertex -20.75 -31.8 -12
    endloop
  endfacet
  facet normal -0 0 -1
    outer loop
      vertex 20.9887 -32.5347 -12
      vertex -21.1636 -32.7289 -12
      vertex -20.8581 -32.3084 -12
    endloop
  endfacet
  facet normal 0 0 -1
    outer loop
      vertex 28 -37.5 -12
      vertex -21.6137 -32.9888 -12
      vertex -21.1636 -32.7289 -12
    endloop
  endfacet
  facet normal 0 0 -1
    outer loop
      vertex -28 -37.5 -12
      vertex -21.6137 -32.9888 -12
      vertex 28 -37.5 -12
    endloop
  endfacet
  facet normal 0 0 -1
    outer loop
      vertex -28 -37.5 -12
      vertex -23.2227 -31.5401 -12
      vertex -23.2227 -32.0599 -12
    endloop
  endfacet
  facet normal 0 0 -1
    outer loop
      vertex -28 37.5 -12
      vertex -23.0113 31.0653 -12
      vertex -28 -37.5 -12
    endloop
  endfacet
  facet normal 0 0 -1
    outer loop
      vertex -23.0113 31.0653 -12
      vertex -28 37.5 -12
      vertex -23.2227 31.5401 -12
    endloop
  endfacet
  facet normal -0 0 -1
    outer loop
      vertex -23.0113 -32.5347 -12
      vertex -28 -37.5 -12
      vertex -23.2227 -32.0599 -12
    endloop
  endfacet
  facet normal -0 0 -1
    outer loop
      vertex -22.625 -32.8825 -12
      vertex -28 -37.5 -12
      vertex -23.0113 -32.5347 -12
    endloop
  endfacet
  facet normal -0 0 -1
    outer loop
      vertex -22.1307 -33.0432 -12
      vertex -28 -37.5 -12
      vertex -22.625 -32.8825 -12
    endloop
  endfacet
  facet normal 0 0 -1
    outer loop
      vertex -21.6137 -32.9888 -12
      vertex -28 -37.5 -12
      vertex -22.1307 -33.0432 -12
    endloop
  endfacet
  facet normal 0 0 -1
    outer loop
      vertex 28 -37.5 -12
      vertex 23.1419 -31.2916 -12
      vertex 28 37.5 -12
    endloop
  endfacet
  facet normal 0 0 -1
    outer loop
      vertex 23.1419 32.3084 -12
      vertex 28 37.5 -12
      vertex 23.25 31.8 -12
    endloop
  endfacet
  facet normal 0 0 -1
    outer loop
      vertex 22.8364 32.7289 -12
      vertex 28 37.5 -12
      vertex 23.1419 32.3084 -12
    endloop
  endfacet
  facet normal 0 0 -1
    outer loop
      vertex 22.3863 32.9888 -12
      vertex 28 37.5 -12
      vertex 22.8364 32.7289 -12
    endloop
  endfacet
  facet normal 0 0 -1
    outer loop
      vertex 21.8693 33.0432 -12
      vertex 28 37.5 -12
      vertex 22.3863 32.9888 -12
    endloop
  endfacet
  facet normal 0 0 -1
    outer loop
      vertex 21.375 32.8825 -12
      vertex 28 37.5 -12
      vertex 21.8693 33.0432 -12
    endloop
  endfacet
  facet normal 0 0 -1
    outer loop
      vertex 20.7773 31.5401 -12
      vertex -20.75 31.8 -12
      vertex 20.7773 32.0599 -12
    endloop
  endfacet
  facet normal 0 0 -1
    outer loop
      vertex -20.8581 32.3084 -12
      vertex 20.7773 32.0599 -12
      vertex -20.75 31.8 -12
    endloop
  endfacet
  facet normal 0 0 -1
    outer loop
      vertex 20.7773 32.0599 -12
      vertex -20.8581 32.3084 -12
      vertex 20.9887 32.5347 -12
    endloop
  endfacet
  facet normal 0 0 -1
    outer loop
      vertex -21.1636 32.7289 -12
      vertex 20.9887 32.5347 -12
      vertex -20.8581 32.3084 -12
    endloop
  endfacet
  facet normal 0 0 -1
    outer loop
      vertex 20.9887 32.5347 -12
      vertex -21.1636 32.7289 -12
      vertex 21.375 32.8825 -12
    endloop
  endfacet
  facet normal -0 0 -1
    outer loop
      vertex 21.375 32.8825 -12
      vertex -21.1636 32.7289 -12
      vertex 28 37.5 -12
    endloop
  endfacet
  facet normal 0 0 -1
    outer loop
      vertex -21.6137 32.9888 -12
      vertex 28 37.5 -12
      vertex -21.1636 32.7289 -12
    endloop
  endfacet
  facet normal 0 0 -1
    outer loop
      vertex -28 37.5 -12
      vertex -21.6137 32.9888 -12
      vertex -22.1307 33.0432 -12
    endloop
  endfacet
  facet normal 0 0 -1
    outer loop
      vertex -21.6137 32.9888 -12
      vertex -28 37.5 -12
      vertex 28 37.5 -12
    endloop
  endfacet
  facet normal 0 0 -1
    outer loop
      vertex -22.625 32.8825 -12
      vertex -28 37.5 -12
      vertex -22.1307 33.0432 -12
    endloop
  endfacet
  facet normal 0 0 -1
    outer loop
      vertex -23.0113 32.5347 -12
      vertex -28 37.5 -12
      vertex -22.625 32.8825 -12
    endloop
  endfacet
  facet normal 0 0 -1
    outer loop
      vertex -23.2227 32.0599 -12
      vertex -28 37.5 -12
      vertex -23.0113 32.5347 -12
    endloop
  endfacet
  facet normal 0 0 -1
    outer loop
      vertex -23.2227 31.5401 -12
      vertex -28 37.5 -12
      vertex -23.2227 32.0599 -12
    endloop
  endfacet
  facet normal 0 -1 0
    outer loop
      vertex -28 -37.5 -12
      vertex 3 -37.5 0
      vertex -28 -37.5 0
    endloop
  endfacet
  facet normal 0 -1 -0
    outer loop
      vertex 3 -37.5 0
      vertex -28 -37.5 -12
      vertex 11.9988 -37.5 -5
    endloop
  endfacet
  facet normal 0 -1 0
    outer loop
      vertex 28 -37.5 -12
      vertex 11.9988 -37.5 -5
      vertex -28 -37.5 -12
    endloop
  endfacet
  facet normal 0 -1 0
    outer loop
      vertex 11.9988 -37.5 -5
      vertex 28 -37.5 -12
      vertex 28 -37.5 -5
    endloop
  endfacet
  facet normal 0 -1 0
    outer loop
      vertex 3 -37.5 0
      vertex 11.9988 -37.5 0.000999451
      vertex 3 -37.5 0.000999451
    endloop
  endfacet
  facet normal 0 -1 -0
    outer loop
      vertex 11.9988 -37.5 0.000999451
      vertex 3 -37.5 0
      vertex 11.9988 -37.5 -5
    endloop
  endfacet
  facet normal -1 0 0
    outer loop
      vertex -35.6681 -0.779669 -5
      vertex -35.6681 0.779669 0.000999451
      vertex -35.6681 0.779669 -5
    endloop
  endfacet
  facet normal -1 -0 0
    outer loop
      vertex -35.6681 0.779669 0.000999451
      vertex -35.6681 -0.779669 -5
      vertex -35.6681 -0.779669 0.000999451
    endloop
  endfacet
  facet normal 0 0 -1
    outer loop
      vertex -28 -7.63426 -5
      vertex -30.25 0 -5
      vertex -28 7.63426 -5
    endloop
  endfacet
  facet normal 0 0 -1
    outer loop
      vertex -28 -7.63426 -5
      vertex -30.4013 -0.711788 -5
      vertex -30.25 0 -5
    endloop
  endfacet
  facet normal 0 0 -1
    outer loop
      vertex -28 -7.63426 -5
      vertex -30.829 -1.3005 -5
      vertex -30.4013 -0.711788 -5
    endloop
  endfacet
  facet normal 0 0 -1
    outer loop
      vertex -28 -7.63426 -5
      vertex -31.4592 -1.66435 -5
      vertex -30.829 -1.3005 -5
    endloop
  endfacet
  facet normal 0 0 -1
    outer loop
      vertex -33.875 -3.24759 -5
      vertex -31.4592 -1.66435 -5
      vertex -28 -7.63426 -5
    endloop
  endfacet
  facet normal 0 0 -1
    outer loop
      vertex -31.4592 -1.66435 -5
      vertex -33.875 -3.24759 -5
      vertex -32.1829 -1.74041 -5
    endloop
  endfacet
  facet normal -0 0 -1
    outer loop
      vertex -32.1829 -1.74041 -5
      vertex -33.875 -3.24759 -5
      vertex -32.875 -1.51554 -5
    endloop
  endfacet
  facet normal -0 0 -1
    outer loop
      vertex -33.4158 -1.02862 -5
      vertex -35.0338 -2.20419 -5
      vertex -33.7118 -0.363845 -5
    endloop
  endfacet
  facet normal 0 0 -1
    outer loop
      vertex -35.0338 -2.20419 -5
      vertex -33.4158 -1.02862 -5
      vertex -33.875 -3.24759 -5
    endloop
  endfacet
  facet normal -0 0 -1
    outer loop
      vertex -32.875 -1.51554 -5
      vertex -33.875 -3.24759 -5
      vertex -33.4158 -1.02862 -5
    endloop
  endfacet
  facet normal 0 0 -1
    outer loop
      vertex -30.4013 0.711788 -5
      vertex -28 7.63426 -5
      vertex -30.25 0 -5
    endloop
  endfacet
  facet normal 0 0 -1
    outer loop
      vertex -30.829 1.3005 -5
      vertex -28 7.63426 -5
      vertex -30.4013 0.711788 -5
    endloop
  endfacet
  facet normal 0 0 -1
    outer loop
      vertex -31.4592 1.66435 -5
      vertex -28 7.63426 -5
      vertex -30.829 1.3005 -5
    endloop
  endfacet
  facet normal 0 0 -1
    outer loop
      vertex -33.875 3.24759 -5
      vertex -31.4592 1.66435 -5
      vertex -32.1829 1.74041 -5
    endloop
  endfacet
  facet normal 0 0 -1
    outer loop
      vertex -33.875 3.24759 -5
      vertex -32.1829 1.74041 -5
      vertex -32.875 1.51554 -5
    endloop
  endfacet
  facet normal 0 0 -1
    outer loop
      vertex -33.875 3.24759 -5
      vertex -32.875 1.51554 -5
      vertex -33.4158 1.02862 -5
    endloop
  endfacet
  facet normal 0 0 -1
    outer loop
      vertex -31.4592 1.66435 -5
      vertex -33.875 3.24759 -5
      vertex -28 7.63426 -5
    endloop
  endfacet
  facet normal 0 0 -1
    outer loop
      vertex -35.0338 2.20419 -5
      vertex -33.4158 1.02862 -5
      vertex -33.7118 0.363845 -5
    endloop
  endfacet
  facet normal 0 0 -1
    outer loop
      vertex -35.6681 -0.779669 -5
      vertex -33.7118 -0.363845 -5
      vertex -35.0338 -2.20419 -5
    endloop
  endfacet
  facet normal -0 0 -1
    outer loop
      vertex -33.7118 -0.363845 -5
      vertex -35.6681 -0.779669 -5
      vertex -33.7118 0.363845 -5
    endloop
  endfacet
  facet normal 0 0 -1
    outer loop
      vertex -33.4158 1.02862 -5
      vertex -35.0338 2.20419 -5
      vertex -33.875 3.24759 -5
    endloop
  endfacet
  facet normal 0 0 -1
    outer loop
      vertex -35.6681 0.779669 -5
      vertex -33.7118 0.363845 -5
      vertex -35.6681 -0.779669 -5
    endloop
  endfacet
  facet normal 0 0 -1
    outer loop
      vertex -33.7118 0.363845 -5
      vertex -35.6681 0.779669 -5
      vertex -35.0338 2.20419 -5
    endloop
  endfacet
  facet normal 0 0 -1
    outer loop
      vertex 25.8487 41.2882 -5
      vertex 28 42 -5
      vertex 28 37.5 -5
    endloop
  endfacet
  facet normal 0 -0 -1
    outer loop
      vertex 26 42 -5
      vertex 28 42 -5
      vertex 25.8487 41.2882 -5
    endloop
  endfacet
  facet normal 0 0 -1
    outer loop
      vertex 25.8487 42.7118 -5
      vertex 27.6758 43.5253 -5
      vertex 26 42 -5
    endloop
  endfacet
  facet normal 0 0 -1
    outer loop
      vertex 28 42 -5
      vertex 26 42 -5
      vertex 27.6758 43.5253 -5
    endloop
  endfacet
  facet normal 0 0 -1
    outer loop
      vertex 28 37.5 -5
      vertex 25.421 40.6995 -5
      vertex 25.8487 41.2882 -5
    endloop
  endfacet
  facet normal 0 0 -1
    outer loop
      vertex 28 37.5 -5
      vertex 24.7908 40.3357 -5
      vertex 25.421 40.6995 -5
    endloop
  endfacet
  facet normal 0 0 -1
    outer loop
      vertex 28 37.5 -5
      vertex 24.0671 40.2596 -5
      vertex 24.7908 40.3357 -5
    endloop
  endfacet
  facet normal 0 0 -1
    outer loop
      vertex 28 37.5 -5
      vertex 23.375 40.4845 -5
      vertex 24.0671 40.2596 -5
    endloop
  endfacet
  facet normal 0 0 -1
    outer loop
      vertex 11.9988 37.5 -5
      vertex 22.5382 42.3638 -5
      vertex 22.5382 41.6362 -5
    endloop
  endfacet
  facet normal -0 0 -1
    outer loop
      vertex 22.5382 42.3638 -5
      vertex 11.9988 37.5 -5
      vertex 22.375 45.2476 -5
    endloop
  endfacet
  facet normal -0 0 -1
    outer loop
      vertex 22.8342 40.9714 -5
      vertex 11.9988 37.5 -5
      vertex 22.5382 41.6362 -5
    endloop
  endfacet
  facet normal -0 0 -1
    outer loop
      vertex 23.375 40.4845 -5
      vertex 11.9988 37.5 -5
      vertex 22.8342 40.9714 -5
    endloop
  endfacet
  facet normal 0 0 -1
    outer loop
      vertex 11.9988 37.5 -5
      vertex 23.375 40.4845 -5
      vertex 28 37.5 -5
    endloop
  endfacet
  facet normal -0 0 -1
    outer loop
      vertex 27.6758 43.5253 -5
      vertex 25.8487 42.7118 -5
      vertex 26.7592 44.7868 -5
    endloop
  endfacet
  facet normal 0 0 -1
    outer loop
      vertex 25.421 43.3005 -5
      vertex 26.7592 44.7868 -5
      vertex 25.8487 42.7118 -5
    endloop
  endfacet
  facet normal 0 0 -1
    outer loop
      vertex 25.421 43.3005 -5
      vertex 25.4088 45.5665 -5
      vertex 26.7592 44.7868 -5
    endloop
  endfacet
  facet normal 0 0 -1
    outer loop
      vertex 24.7908 43.6643 -5
      vertex 25.4088 45.5665 -5
      vertex 25.421 43.3005 -5
    endloop
  endfacet
  facet normal 0 0 -1
    outer loop
      vertex 24.0671 43.7404 -5
      vertex 25.4088 45.5665 -5
      vertex 24.7908 43.6643 -5
    endloop
  endfacet
  facet normal 0 0 -1
    outer loop
      vertex 24.0671 43.7404 -5
      vertex 23.858 45.7295 -5
      vertex 25.4088 45.5665 -5
    endloop
  endfacet
  facet normal 0 0 -1
    outer loop
      vertex 23.375 43.5155 -5
      vertex 23.858 45.7295 -5
      vertex 24.0671 43.7404 -5
    endloop
  endfacet
  facet normal 0 0 -1
    outer loop
      vertex 22.375 45.2476 -5
      vertex 23.375 43.5155 -5
      vertex 22.8342 43.0286 -5
    endloop
  endfacet
  facet normal 0 0 -1
    outer loop
      vertex 22.375 45.2476 -5
      vertex 22.8342 43.0286 -5
      vertex 22.5382 42.3638 -5
    endloop
  endfacet
  facet normal 0 0 -1
    outer loop
      vertex 23.375 43.5155 -5
      vertex 22.375 45.2476 -5
      vertex 23.858 45.7295 -5
    endloop
  endfacet
  facet normal 0 0 -1
    outer loop
      vertex 27.6758 -43.5253 -5
      vertex 25.8487 -42.7118 -5
      vertex 26 -42 -5
    endloop
  endfacet
  facet normal 0 0 -1
    outer loop
      vertex 26.7592 -44.7868 -5
      vertex 25.421 -43.3005 -5
      vertex 25.8487 -42.7118 -5
    endloop
  endfacet
  facet normal 0 0 -1
    outer loop
      vertex 25.4088 -45.5665 -5
      vertex 25.421 -43.3005 -5
      vertex 26.7592 -44.7868 -5
    endloop
  endfacet
  facet normal 0 0 -1
    outer loop
      vertex 25.4088 -45.5665 -5
      vertex 24.7908 -43.6643 -5
      vertex 25.421 -43.3005 -5
    endloop
  endfacet
  facet normal 0 0 -1
    outer loop
      vertex 25.4088 -45.5665 -5
      vertex 24.0671 -43.7404 -5
      vertex 24.7908 -43.6643 -5
    endloop
  endfacet
  facet normal 0 0 -1
    outer loop
      vertex 23.858 -45.7295 -5
      vertex 24.0671 -43.7404 -5
      vertex 25.4088 -45.5665 -5
    endloop
  endfacet
  facet normal 0 0 -1
    outer loop
      vertex 23.858 -45.7295 -5
      vertex 23.375 -43.5155 -5
      vertex 24.0671 -43.7404 -5
    endloop
  endfacet
  facet normal 0 0 -1
    outer loop
      vertex 22.375 -45.2476 -5
      vertex 23.375 -43.5155 -5
      vertex 23.858 -45.7295 -5
    endloop
  endfacet
  facet normal -0 0 -1
    outer loop
      vertex 23.375 -43.5155 -5
      vertex 22.375 -45.2476 -5
      vertex 22.8342 -43.0286 -5
    endloop
  endfacet
  facet normal 0 0 -1
    outer loop
      vertex 11.9988 -37.5 -5
      vertex 22.5382 -42.3638 -5
      vertex 22.375 -45.2476 -5
    endloop
  endfacet
  facet normal -0 0 -1
    outer loop
      vertex 22.8342 -43.0286 -5
      vertex 22.375 -45.2476 -5
      vertex 22.5382 -42.3638 -5
    endloop
  endfacet
  facet normal 0 0 -1
    outer loop
      vertex 26 -42 -5
      vertex 28 -42 -5
      vertex 27.6758 -43.5253 -5
    endloop
  endfacet
  facet normal 0 0 -1
    outer loop
      vertex 25.8487 -42.7118 -5
      vertex 27.6758 -43.5253 -5
      vertex 26.7592 -44.7868 -5
    endloop
  endfacet
  facet normal 0 0 -1
    outer loop
      vertex 28 -42 -5
      vertex 26 -42 -5
      vertex 25.8487 -41.2882 -5
    endloop
  endfacet
  facet normal 0 0 -1
    outer loop
      vertex 28 -42 -5
      vertex 25.8487 -41.2882 -5
      vertex 28 -37.5 -5
    endloop
  endfacet
  facet normal 0 0 -1
    outer loop
      vertex 25.421 -40.6995 -5
      vertex 28 -37.5 -5
      vertex 25.8487 -41.2882 -5
    endloop
  endfacet
  facet normal 0 0 -1
    outer loop
      vertex 24.7908 -40.3357 -5
      vertex 28 -37.5 -5
      vertex 25.421 -40.6995 -5
    endloop
  endfacet
  facet normal 0 0 -1
    outer loop
      vertex 24.0671 -40.2596 -5
      vertex 28 -37.5 -5
      vertex 24.7908 -40.3357 -5
    endloop
  endfacet
  facet normal 0 0 -1
    outer loop
      vertex 23.375 -40.4845 -5
      vertex 28 -37.5 -5
      vertex 24.0671 -40.2596 -5
    endloop
  endfacet
  facet normal 0 0 -1
    outer loop
      vertex 23.375 -40.4845 -5
      vertex 11.9988 -37.5 -5
      vertex 28 -37.5 -5
    endloop
  endfacet
  facet normal 0 0 -1
    outer loop
      vertex 22.8342 -40.9714 -5
      vertex 11.9988 -37.5 -5
      vertex 23.375 -40.4845 -5
    endloop
  endfacet
  facet normal 0 0 -1
    outer loop
      vertex 22.5382 -41.6362 -5
      vertex 11.9988 -37.5 -5
      vertex 22.8342 -40.9714 -5
    endloop
  endfacet
  facet normal 0 0 -1
    outer loop
      vertex 22.5382 -42.3638 -5
      vertex 11.9988 -37.5 -5
      vertex 22.5382 -41.6362 -5
    endloop
  endfacet
  facet normal 0.499999 -0.866026 0
    outer loop
      vertex 25.4088 -45.5665 -5
      vertex 26.7592 -44.7868 0.000999451
      vertex 25.4088 -45.5665 0.000999451
    endloop
  endfacet
  facet normal 0.499999 -0.866026 0
    outer loop
      vertex 26.7592 -44.7868 0.000999451
      vertex 25.4088 -45.5665 -5
      vertex 26.7592 -44.7868 -5
    endloop
  endfacet
  facet normal -0.669131 0.743145 0
    outer loop
      vertex -33.875 3.24759 -5
      vertex -35.0338 2.20419 0.000999451
      vertex -33.875 3.24759 0.000999451
    endloop
  endfacet
  facet normal -0.669131 0.743145 0
    outer loop
      vertex -35.0338 2.20419 0.000999451
      vertex -33.875 3.24759 -5
      vertex -35.0338 2.20419 -5
    endloop
  endfacet
  facet normal -0.598289 0.80128 0
    outer loop
      vertex -28 7.63426 -5
      vertex -33.875 3.24759 0.000999451
      vertex -28 7.63426 0.000999451
    endloop
  endfacet
  facet normal -0.598289 0.80128 0
    outer loop
      vertex -33.875 3.24759 0.000999451
      vertex -28 7.63426 -5
      vertex -33.875 3.24759 -5
    endloop
  endfacet
  facet normal -0.598289 0.80128 0
    outer loop
      vertex 22.375 45.2476 -5
      vertex 11.9988 37.5 0.000999451
      vertex 22.375 45.2476 0.000999451
    endloop
  endfacet
  facet normal -0.598289 0.80128 0
    outer loop
      vertex 11.9988 37.5 0.000999451
      vertex 22.375 45.2476 -5
      vertex 11.9988 37.5 -5
    endloop
  endfacet
  facet normal -0.309017 0.951057 0
    outer loop
      vertex 23.858 45.7295 -5
      vertex 22.375 45.2476 0.000999451
      vertex 23.858 45.7295 0.000999451
    endloop
  endfacet
  facet normal -0.309017 0.951057 0
    outer loop
      vertex 22.375 45.2476 0.000999451
      vertex 23.858 45.7295 -5
      vertex 22.375 45.2476 -5
    endloop
  endfacet
  facet normal 0.10453 0.994522 -0
    outer loop
      vertex 25.4088 45.5665 -5
      vertex 23.858 45.7295 0.000999451
      vertex 25.4088 45.5665 0.000999451
    endloop
  endfacet
  facet normal 0.10453 0.994522 0
    outer loop
      vertex 23.858 45.7295 0.000999451
      vertex 25.4088 45.5665 -5
      vertex 23.858 45.7295 -5
    endloop
  endfacet
  facet normal -0.598289 -0.80128 0
    outer loop
      vertex 11.9988 -37.5 -5
      vertex 22.375 -45.2476 0.000999451
      vertex 11.9988 -37.5 0.000999451
    endloop
  endfacet
  facet normal -0.598289 -0.80128 -0
    outer loop
      vertex 22.375 -45.2476 0.000999451
      vertex 11.9988 -37.5 -5
      vertex 22.375 -45.2476 -5
    endloop
  endfacet
  facet normal -0.598289 -0.80128 0
    outer loop
      vertex -33.875 -3.24759 -5
      vertex -28 -7.63426 0.000999451
      vertex -33.875 -3.24759 0.000999451
    endloop
  endfacet
  facet normal -0.598289 -0.80128 -0
    outer loop
      vertex -28 -7.63426 0.000999451
      vertex -33.875 -3.24759 -5
      vertex -28 -7.63426 -5
    endloop
  endfacet
  facet normal -0.913546 -0.406736 0
    outer loop
      vertex -35.0338 -2.20419 -5
      vertex -35.6681 -0.779669 0.000999451
      vertex -35.6681 -0.779669 -5
    endloop
  endfacet
  facet normal -0.913546 -0.406736 0
    outer loop
      vertex -35.6681 -0.779669 0.000999451
      vertex -35.0338 -2.20419 -5
      vertex -35.0338 -2.20419 0.000999451
    endloop
  endfacet
  facet normal -0.913546 0.406736 0
    outer loop
      vertex -35.6681 0.779669 -5
      vertex -35.0338 2.20419 0.000999451
      vertex -35.0338 2.20419 -5
    endloop
  endfacet
  facet normal -0.913546 0.406736 0
    outer loop
      vertex -35.0338 2.20419 0.000999451
      vertex -35.6681 0.779669 -5
      vertex -35.6681 0.779669 0.000999451
    endloop
  endfacet
  facet normal 0.809017 -0.587785 0
    outer loop
      vertex 26.7592 -44.7868 0.000999451
      vertex 27.6758 -43.5253 -5
      vertex 27.6758 -43.5253 0.000999451
    endloop
  endfacet
  facet normal 0.809017 -0.587785 0
    outer loop
      vertex 27.6758 -43.5253 -5
      vertex 26.7592 -44.7868 0.000999451
      vertex 26.7592 -44.7868 -5
    endloop
  endfacet
  facet normal 0.978147 -0.207912 0
    outer loop
      vertex 27.6758 -43.5253 0.000999451
      vertex 28 -42 -5
      vertex 28 -42 0.000999451
    endloop
  endfacet
  facet normal 0.978147 -0.207912 0
    outer loop
      vertex 28 -42 -5
      vertex 27.6758 -43.5253 0.000999451
      vertex 27.6758 -43.5253 -5
    endloop
  endfacet
  facet normal -0.309017 -0.951057 0
    outer loop
      vertex 22.375 -45.2476 -5
      vertex 23.858 -45.7295 0.000999451
      vertex 22.375 -45.2476 0.000999451
    endloop
  endfacet
  facet normal -0.309017 -0.951057 -0
    outer loop
      vertex 23.858 -45.7295 0.000999451
      vertex 22.375 -45.2476 -5
      vertex 23.858 -45.7295 -5
    endloop
  endfacet
  facet normal 0.10453 -0.994522 0
    outer loop
      vertex 23.858 -45.7295 -5
      vertex 25.4088 -45.5665 0.000999451
      vertex 23.858 -45.7295 0.000999451
    endloop
  endfacet
  facet normal 0.10453 -0.994522 0
    outer loop
      vertex 25.4088 -45.5665 0.000999451
      vertex 23.858 -45.7295 -5
      vertex 25.4088 -45.5665 -5
    endloop
  endfacet
  facet normal -0.669131 -0.743145 0
    outer loop
      vertex -35.0338 -2.20419 -5
      vertex -33.875 -3.24759 0.000999451
      vertex -35.0338 -2.20419 0.000999451
    endloop
  endfacet
  facet normal -0.669131 -0.743145 -0
    outer loop
      vertex -33.875 -3.24759 0.000999451
      vertex -35.0338 -2.20419 -5
      vertex -33.875 -3.24759 -5
    endloop
  endfacet
  facet normal 0.499999 0.866026 -0
    outer loop
      vertex 26.7592 44.7868 -5
      vertex 25.4088 45.5665 0.000999451
      vertex 26.7592 44.7868 0.000999451
    endloop
  endfacet
  facet normal 0.499999 0.866026 0
    outer loop
      vertex 25.4088 45.5665 0.000999451
      vertex 26.7592 44.7868 -5
      vertex 25.4088 45.5665 -5
    endloop
  endfacet
  facet normal 0.809017 0.587785 0
    outer loop
      vertex 27.6758 43.5253 0.000999451
      vertex 26.7592 44.7868 -5
      vertex 26.7592 44.7868 0.000999451
    endloop
  endfacet
  facet normal 0.809017 0.587785 0
    outer loop
      vertex 26.7592 44.7868 -5
      vertex 27.6758 43.5253 0.000999451
      vertex 27.6758 43.5253 -5
    endloop
  endfacet
  facet normal 0.978147 0.207912 0
    outer loop
      vertex 28 42 0.000999451
      vertex 27.6758 43.5253 -5
      vertex 27.6758 43.5253 0.000999451
    endloop
  endfacet
  facet normal 0.978147 0.207912 0
    outer loop
      vertex 27.6758 43.5253 -5
      vertex 28 42 0.000999451
      vertex 28 42 -5
    endloop
  endfacet
  facet normal -0.978147 -0.207913 0
    outer loop
      vertex 23.25 31.8 -12
      vertex 23.1419 32.3084 -10
      vertex 23.1419 32.3084 -12
    endloop
  endfacet
  facet normal -0.978147 -0.207913 0
    outer loop
      vertex 23.1419 32.3084 -10
      vertex 23.25 31.8 -12
      vertex 23.25 31.8 -10
    endloop
  endfacet
  facet normal 1 -0 0
    outer loop
      vertex 20.7773 31.5401 -10
      vertex 20.7773 32.0599 -12
      vertex 20.7773 32.0599 -10
    endloop
  endfacet
  facet normal 1 0 0
    outer loop
      vertex 20.7773 32.0599 -12
      vertex 20.7773 31.5401 -10
      vertex 20.7773 31.5401 -12
    endloop
  endfacet
  facet normal -0.10453 -0.994522 0
    outer loop
      vertex 21.8693 33.0432 -12
      vertex 22.3863 32.9888 -10
      vertex 21.8693 33.0432 -10
    endloop
  endfacet
  facet normal -0.10453 -0.994522 -0
    outer loop
      vertex 22.3863 32.9888 -10
      vertex 21.8693 33.0432 -12
      vertex 22.3863 32.9888 -12
    endloop
  endfacet
  facet normal -0.10453 0.994522 0
    outer loop
      vertex 22.3863 30.6112 -12
      vertex 21.8693 30.5568 -10
      vertex 22.3863 30.6112 -10
    endloop
  endfacet
  facet normal -0.10453 0.994522 0
    outer loop
      vertex 21.8693 30.5568 -10
      vertex 22.3863 30.6112 -12
      vertex 21.8693 30.5568 -12
    endloop
  endfacet
  facet normal -0.5 0.866025 0
    outer loop
      vertex 22.8364 30.8711 -12
      vertex 22.3863 30.6112 -10
      vertex 22.8364 30.8711 -10
    endloop
  endfacet
  facet normal -0.5 0.866025 0
    outer loop
      vertex 22.3863 30.6112 -10
      vertex 22.8364 30.8711 -12
      vertex 22.3863 30.6112 -12
    endloop
  endfacet
  facet normal -0.499997 -0.866027 0
    outer loop
      vertex 22.3863 32.9888 -12
      vertex 22.8364 32.7289 -10
      vertex 22.3863 32.9888 -10
    endloop
  endfacet
  facet normal -0.499997 -0.866027 -0
    outer loop
      vertex 22.8364 32.7289 -10
      vertex 22.3863 32.9888 -12
      vertex 22.8364 32.7289 -12
    endloop
  endfacet
  facet normal -0.809018 -0.587783 0
    outer loop
      vertex 23.1419 32.3084 -12
      vertex 22.8364 32.7289 -10
      vertex 22.8364 32.7289 -12
    endloop
  endfacet
  facet normal -0.809018 -0.587783 0
    outer loop
      vertex 22.8364 32.7289 -10
      vertex 23.1419 32.3084 -12
      vertex 23.1419 32.3084 -10
    endloop
  endfacet
  facet normal 0.669131 -0.743145 0
    outer loop
      vertex 20.9887 32.5347 -12
      vertex 21.375 32.8825 -10
      vertex 20.9887 32.5347 -10
    endloop
  endfacet
  facet normal 0.669131 -0.743145 0
    outer loop
      vertex 21.375 32.8825 -10
      vertex 20.9887 32.5347 -12
      vertex 21.375 32.8825 -12
    endloop
  endfacet
  facet normal 0.913545 -0.406738 0
    outer loop
      vertex 20.7773 32.0599 -10
      vertex 20.9887 32.5347 -12
      vertex 20.9887 32.5347 -10
    endloop
  endfacet
  facet normal 0.913545 -0.406738 0
    outer loop
      vertex 20.9887 32.5347 -12
      vertex 20.7773 32.0599 -10
      vertex 20.7773 32.0599 -12
    endloop
  endfacet
  facet normal 0.309019 -0.951056 0
    outer loop
      vertex 21.375 32.8825 -12
      vertex 21.8693 33.0432 -10
      vertex 21.375 32.8825 -10
    endloop
  endfacet
  facet normal 0.309019 -0.951056 0
    outer loop
      vertex 21.8693 33.0432 -10
      vertex 21.375 32.8825 -12
      vertex 21.8693 33.0432 -12
    endloop
  endfacet
  facet normal 0.309019 0.951056 -0
    outer loop
      vertex 21.8693 30.5568 -12
      vertex 21.375 30.7175 -10
      vertex 21.8693 30.5568 -10
    endloop
  endfacet
  facet normal 0.309019 0.951056 0
    outer loop
      vertex 21.375 30.7175 -10
      vertex 21.8693 30.5568 -12
      vertex 21.375 30.7175 -12
    endloop
  endfacet
  facet normal -0.809016 0.587787 0
    outer loop
      vertex 22.8364 30.8711 -12
      vertex 23.1419 31.2916 -10
      vertex 23.1419 31.2916 -12
    endloop
  endfacet
  facet normal -0.809016 0.587787 0
    outer loop
      vertex 23.1419 31.2916 -10
      vertex 22.8364 30.8711 -12
      vertex 22.8364 30.8711 -10
    endloop
  endfacet
  facet normal -0.978147 0.207912 0
    outer loop
      vertex 23.1419 31.2916 -12
      vertex 23.25 31.8 -10
      vertex 23.25 31.8 -12
    endloop
  endfacet
  facet normal -0.978147 0.207912 0
    outer loop
      vertex 23.25 31.8 -10
      vertex 23.1419 31.2916 -12
      vertex 23.1419 31.2916 -10
    endloop
  endfacet
  facet normal 0.669129 0.743147 -0
    outer loop
      vertex 21.375 30.7175 -12
      vertex 20.9887 31.0653 -10
      vertex 21.375 30.7175 -10
    endloop
  endfacet
  facet normal 0.669129 0.743147 0
    outer loop
      vertex 20.9887 31.0653 -10
      vertex 21.375 30.7175 -12
      vertex 20.9887 31.0653 -12
    endloop
  endfacet
  facet normal 0.913546 0.406735 0
    outer loop
      vertex 20.9887 31.0653 -10
      vertex 20.7773 31.5401 -12
      vertex 20.7773 31.5401 -10
    endloop
  endfacet
  facet normal 0.913546 0.406735 0
    outer loop
      vertex 20.7773 31.5401 -12
      vertex 20.9887 31.0653 -10
      vertex 20.9887 31.0653 -12
    endloop
  endfacet
  facet normal -0.978147 -0.207912 0
    outer loop
      vertex 23.25 -31.8 -12
      vertex 23.1419 -31.2916 -10
      vertex 23.1419 -31.2916 -12
    endloop
  endfacet
  facet normal -0.978147 -0.207912 0
    outer loop
      vertex 23.1419 -31.2916 -10
      vertex 23.25 -31.8 -12
      vertex 23.25 -31.8 -10
    endloop
  endfacet
  facet normal 1 -0 0
    outer loop
      vertex 20.7773 -32.0599 -10
      vertex 20.7773 -31.5401 -12
      vertex 20.7773 -31.5401 -10
    endloop
  endfacet
  facet normal 1 0 0
    outer loop
      vertex 20.7773 -31.5401 -12
      vertex 20.7773 -32.0599 -10
      vertex 20.7773 -32.0599 -12
    endloop
  endfacet
  facet normal -0.10453 0.994522 0
    outer loop
      vertex 22.3863 -32.9888 -12
      vertex 21.8693 -33.0432 -10
      vertex 22.3863 -32.9888 -10
    endloop
  endfacet
  facet normal -0.10453 0.994522 0
    outer loop
      vertex 21.8693 -33.0432 -10
      vertex 22.3863 -32.9888 -12
      vertex 21.8693 -33.0432 -12
    endloop
  endfacet
  facet normal 0.309019 -0.951056 0
    outer loop
      vertex 21.375 -30.7175 -12
      vertex 21.8693 -30.5568 -10
      vertex 21.375 -30.7175 -10
    endloop
  endfacet
  facet normal 0.309019 -0.951056 0
    outer loop
      vertex 21.8693 -30.5568 -10
      vertex 21.375 -30.7175 -12
      vertex 21.8693 -30.5568 -12
    endloop
  endfacet
  facet normal 0.669129 -0.743147 0
    outer loop
      vertex 20.9887 -31.0653 -12
      vertex 21.375 -30.7175 -10
      vertex 20.9887 -31.0653 -10
    endloop
  endfacet
  facet normal 0.669129 -0.743147 0
    outer loop
      vertex 21.375 -30.7175 -10
      vertex 20.9887 -31.0653 -12
      vertex 21.375 -30.7175 -12
    endloop
  endfacet
  facet normal -0.5 -0.866025 0
    outer loop
      vertex 22.3863 -30.6112 -12
      vertex 22.8364 -30.8711 -10
      vertex 22.3863 -30.6112 -10
    endloop
  endfacet
  facet normal -0.5 -0.866025 -0
    outer loop
      vertex 22.8364 -30.8711 -10
      vertex 22.3863 -30.6112 -12
      vertex 22.8364 -30.8711 -12
    endloop
  endfacet
  facet normal -0.809016 -0.587787 0
    outer loop
      vertex 23.1419 -31.2916 -12
      vertex 22.8364 -30.8711 -10
      vertex 22.8364 -30.8711 -12
    endloop
  endfacet
  facet normal -0.809016 -0.587787 0
    outer loop
      vertex 22.8364 -30.8711 -10
      vertex 23.1419 -31.2916 -12
      vertex 23.1419 -31.2916 -10
    endloop
  endfacet
  facet normal -0.10453 -0.994522 0
    outer loop
      vertex 21.8693 -30.5568 -12
      vertex 22.3863 -30.6112 -10
      vertex 21.8693 -30.5568 -10
    endloop
  endfacet
  facet normal -0.10453 -0.994522 -0
    outer loop
      vertex 22.3863 -30.6112 -10
      vertex 21.8693 -30.5568 -12
      vertex 22.3863 -30.6112 -12
    endloop
  endfacet
  facet normal 0.913546 -0.406735 0
    outer loop
      vertex 20.7773 -31.5401 -10
      vertex 20.9887 -31.0653 -12
      vertex 20.9887 -31.0653 -10
    endloop
  endfacet
  facet normal 0.913546 -0.406735 0
    outer loop
      vertex 20.9887 -31.0653 -12
      vertex 20.7773 -31.5401 -10
      vertex 20.7773 -31.5401 -12
    endloop
  endfacet
  facet normal 0.309019 0.951056 -0
    outer loop
      vertex 21.8693 -33.0432 -12
      vertex 21.375 -32.8825 -10
      vertex 21.8693 -33.0432 -10
    endloop
  endfacet
  facet normal 0.309019 0.951056 0
    outer loop
      vertex 21.375 -32.8825 -10
      vertex 21.8693 -33.0432 -12
      vertex 21.375 -32.8825 -12
    endloop
  endfacet
  facet normal 0.669131 0.743145 -0
    outer loop
      vertex 21.375 -32.8825 -12
      vertex 20.9887 -32.5347 -10
      vertex 21.375 -32.8825 -10
    endloop
  endfacet
  facet normal 0.669131 0.743145 0
    outer loop
      vertex 20.9887 -32.5347 -10
      vertex 21.375 -32.8825 -12
      vertex 20.9887 -32.5347 -12
    endloop
  endfacet
  facet normal 0.913545 0.406738 0
    outer loop
      vertex 20.9887 -32.5347 -10
      vertex 20.7773 -32.0599 -12
      vertex 20.7773 -32.0599 -10
    endloop
  endfacet
  facet normal 0.913545 0.406738 0
    outer loop
      vertex 20.7773 -32.0599 -12
      vertex 20.9887 -32.5347 -10
      vertex 20.9887 -32.5347 -12
    endloop
  endfacet
  facet normal -0.809018 0.587783 0
    outer loop
      vertex 22.8364 -32.7289 -12
      vertex 23.1419 -32.3084 -10
      vertex 23.1419 -32.3084 -12
    endloop
  endfacet
  facet normal -0.809018 0.587783 0
    outer loop
      vertex 23.1419 -32.3084 -10
      vertex 22.8364 -32.7289 -12
      vertex 22.8364 -32.7289 -10
    endloop
  endfacet
  facet normal -0.499997 0.866027 0
    outer loop
      vertex 22.8364 -32.7289 -12
      vertex 22.3863 -32.9888 -10
      vertex 22.8364 -32.7289 -10
    endloop
  endfacet
  facet normal -0.499997 0.866027 0
    outer loop
      vertex 22.3863 -32.9888 -10
      vertex 22.8364 -32.7289 -12
      vertex 22.3863 -32.9888 -12
    endloop
  endfacet
  facet normal -0.978147 0.207913 0
    outer loop
      vertex 23.1419 -32.3084 -12
      vertex 23.25 -31.8 -10
      vertex 23.25 -31.8 -12
    endloop
  endfacet
  facet normal -0.978147 0.207913 0
    outer loop
      vertex 23.25 -31.8 -10
      vertex 23.1419 -32.3084 -12
      vertex 23.1419 -32.3084 -10
    endloop
  endfacet
  facet normal -0.978148 -0.207909 0
    outer loop
      vertex -20.75 31.8 -12
      vertex -20.8581 32.3084 -10
      vertex -20.8581 32.3084 -12
    endloop
  endfacet
  facet normal -0.978148 -0.207909 0
    outer loop
      vertex -20.8581 32.3084 -10
      vertex -20.75 31.8 -12
      vertex -20.75 31.8 -10
    endloop
  endfacet
  facet normal 1 -0 0
    outer loop
      vertex -23.2227 31.5401 -10
      vertex -23.2227 32.0599 -12
      vertex -23.2227 32.0599 -10
    endloop
  endfacet
  facet normal 1 0 0
    outer loop
      vertex -23.2227 32.0599 -12
      vertex -23.2227 31.5401 -10
      vertex -23.2227 31.5401 -12
    endloop
  endfacet
  facet normal 0.913546 0.406735 0
    outer loop
      vertex -23.0113 31.0653 -10
      vertex -23.2227 31.5401 -12
      vertex -23.2227 31.5401 -10
    endloop
  endfacet
  facet normal 0.913546 0.406735 0
    outer loop
      vertex -23.2227 31.5401 -12
      vertex -23.0113 31.0653 -10
      vertex -23.0113 31.0653 -12
    endloop
  endfacet
  facet normal 0.309019 -0.951056 0
    outer loop
      vertex -22.625 32.8825 -12
      vertex -22.1307 33.0432 -10
      vertex -22.625 32.8825 -10
    endloop
  endfacet
  facet normal 0.309019 -0.951056 0
    outer loop
      vertex -22.1307 33.0432 -10
      vertex -22.625 32.8825 -12
      vertex -22.1307 33.0432 -12
    endloop
  endfacet
  facet normal -0.499997 -0.866027 0
    outer loop
      vertex -21.6137 32.9888 -12
      vertex -21.1636 32.7289 -10
      vertex -21.6137 32.9888 -10
    endloop
  endfacet
  facet normal -0.499997 -0.866027 -0
    outer loop
      vertex -21.1636 32.7289 -10
      vertex -21.6137 32.9888 -12
      vertex -21.1636 32.7289 -12
    endloop
  endfacet
  facet normal -0.809018 -0.587783 0
    outer loop
      vertex -20.8581 32.3084 -12
      vertex -21.1636 32.7289 -10
      vertex -21.1636 32.7289 -12
    endloop
  endfacet
  facet normal -0.809018 -0.587783 0
    outer loop
      vertex -21.1636 32.7289 -10
      vertex -20.8581 32.3084 -12
      vertex -20.8581 32.3084 -10
    endloop
  endfacet
  facet normal 0.669132 -0.743143 0
    outer loop
      vertex -23.0113 32.5347 -12
      vertex -22.625 32.8825 -10
      vertex -23.0113 32.5347 -10
    endloop
  endfacet
  facet normal 0.669132 -0.743143 0
    outer loop
      vertex -22.625 32.8825 -10
      vertex -23.0113 32.5347 -12
      vertex -22.625 32.8825 -12
    endloop
  endfacet
  facet normal 0.913545 -0.406738 0
    outer loop
      vertex -23.2227 32.0599 -10
      vertex -23.0113 32.5347 -12
      vertex -23.0113 32.5347 -10
    endloop
  endfacet
  facet normal 0.913545 -0.406738 0
    outer loop
      vertex -23.0113 32.5347 -12
      vertex -23.2227 32.0599 -10
      vertex -23.2227 32.0599 -12
    endloop
  endfacet
  facet normal -0.10453 -0.994522 0
    outer loop
      vertex -22.1307 33.0432 -12
      vertex -21.6137 32.9888 -10
      vertex -22.1307 33.0432 -10
    endloop
  endfacet
  facet normal -0.10453 -0.994522 -0
    outer loop
      vertex -21.6137 32.9888 -10
      vertex -22.1307 33.0432 -12
      vertex -21.6137 32.9888 -12
    endloop
  endfacet
  facet normal 0.309019 0.951056 -0
    outer loop
      vertex -22.1307 30.5568 -12
      vertex -22.625 30.7175 -10
      vertex -22.1307 30.5568 -10
    endloop
  endfacet
  facet normal 0.309019 0.951056 0
    outer loop
      vertex -22.625 30.7175 -10
      vertex -22.1307 30.5568 -12
      vertex -22.625 30.7175 -12
    endloop
  endfacet
  facet normal 0.66913 0.743145 -0
    outer loop
      vertex -22.625 30.7175 -12
      vertex -23.0113 31.0653 -10
      vertex -22.625 30.7175 -10
    endloop
  endfacet
  facet normal 0.66913 0.743145 0
    outer loop
      vertex -23.0113 31.0653 -10
      vertex -22.625 30.7175 -12
      vertex -23.0113 31.0653 -12
    endloop
  endfacet
  facet normal -0.5 0.866025 0
    outer loop
      vertex -21.1636 30.8711 -12
      vertex -21.6137 30.6112 -10
      vertex -21.1636 30.8711 -10
    endloop
  endfacet
  facet normal -0.5 0.866025 0
    outer loop
      vertex -21.6137 30.6112 -10
      vertex -21.1636 30.8711 -12
      vertex -21.6137 30.6112 -12
    endloop
  endfacet
  facet normal -0.809016 0.587787 0
    outer loop
      vertex -21.1636 30.8711 -12
      vertex -20.8581 31.2916 -10
      vertex -20.8581 31.2916 -12
    endloop
  endfacet
  facet normal -0.809016 0.587787 0
    outer loop
      vertex -20.8581 31.2916 -10
      vertex -21.1636 30.8711 -12
      vertex -21.1636 30.8711 -10
    endloop
  endfacet
  facet normal -0.978148 0.207909 0
    outer loop
      vertex -20.8581 31.2916 -12
      vertex -20.75 31.8 -10
      vertex -20.75 31.8 -12
    endloop
  endfacet
  facet normal -0.978148 0.207909 0
    outer loop
      vertex -20.75 31.8 -10
      vertex -20.8581 31.2916 -12
      vertex -20.8581 31.2916 -10
    endloop
  endfacet
  facet normal -0.10453 0.994522 0
    outer loop
      vertex -21.6137 30.6112 -12
      vertex -22.1307 30.5568 -10
      vertex -21.6137 30.6112 -10
    endloop
  endfacet
  facet normal -0.10453 0.994522 0
    outer loop
      vertex -22.1307 30.5568 -10
      vertex -21.6137 30.6112 -12
      vertex -22.1307 30.5568 -12
    endloop
  endfacet
  facet normal -0.978148 -0.207909 0
    outer loop
      vertex -20.75 -31.8 -12
      vertex -20.8581 -31.2916 -10
      vertex -20.8581 -31.2916 -12
    endloop
  endfacet
  facet normal -0.978148 -0.207909 0
    outer loop
      vertex -20.8581 -31.2916 -10
      vertex -20.75 -31.8 -12
      vertex -20.75 -31.8 -10
    endloop
  endfacet
  facet normal 1 -0 0
    outer loop
      vertex -23.2227 -32.0599 -10
      vertex -23.2227 -31.5401 -12
      vertex -23.2227 -31.5401 -10
    endloop
  endfacet
  facet normal 1 0 0
    outer loop
      vertex -23.2227 -31.5401 -12
      vertex -23.2227 -32.0599 -10
      vertex -23.2227 -32.0599 -12
    endloop
  endfacet
  facet normal 0.309019 -0.951056 0
    outer loop
      vertex -22.625 -30.7175 -12
      vertex -22.1307 -30.5568 -10
      vertex -22.625 -30.7175 -10
    endloop
  endfacet
  facet normal 0.309019 -0.951056 0
    outer loop
      vertex -22.1307 -30.5568 -10
      vertex -22.625 -30.7175 -12
      vertex -22.1307 -30.5568 -12
    endloop
  endfacet
  facet normal -0.10453 0.994522 0
    outer loop
      vertex -21.6137 -32.9888 -12
      vertex -22.1307 -33.0432 -10
      vertex -21.6137 -32.9888 -10
    endloop
  endfacet
  facet normal -0.10453 0.994522 0
    outer loop
      vertex -22.1307 -33.0432 -10
      vertex -21.6137 -32.9888 -12
      vertex -22.1307 -33.0432 -12
    endloop
  endfacet
  facet normal -0.499997 0.866027 0
    outer loop
      vertex -21.1636 -32.7289 -12
      vertex -21.6137 -32.9888 -10
      vertex -21.1636 -32.7289 -10
    endloop
  endfacet
  facet normal -0.499997 0.866027 0
    outer loop
      vertex -21.6137 -32.9888 -10
      vertex -21.1636 -32.7289 -12
      vertex -21.6137 -32.9888 -12
    endloop
  endfacet
  facet normal -0.5 -0.866025 0
    outer loop
      vertex -21.6137 -30.6112 -12
      vertex -21.1636 -30.8711 -10
      vertex -21.6137 -30.6112 -10
    endloop
  endfacet
  facet normal -0.5 -0.866025 -0
    outer loop
      vertex -21.1636 -30.8711 -10
      vertex -21.6137 -30.6112 -12
      vertex -21.1636 -30.8711 -12
    endloop
  endfacet
  facet normal -0.809016 -0.587787 0
    outer loop
      vertex -20.8581 -31.2916 -12
      vertex -21.1636 -30.8711 -10
      vertex -21.1636 -30.8711 -12
    endloop
  endfacet
  facet normal -0.809016 -0.587787 0
    outer loop
      vertex -21.1636 -30.8711 -10
      vertex -20.8581 -31.2916 -12
      vertex -20.8581 -31.2916 -10
    endloop
  endfacet
  facet normal -0.10453 -0.994522 0
    outer loop
      vertex -22.1307 -30.5568 -12
      vertex -21.6137 -30.6112 -10
      vertex -22.1307 -30.5568 -10
    endloop
  endfacet
  facet normal -0.10453 -0.994522 -0
    outer loop
      vertex -21.6137 -30.6112 -10
      vertex -22.1307 -30.5568 -12
      vertex -21.6137 -30.6112 -12
    endloop
  endfacet
  facet normal 0.913546 -0.406735 0
    outer loop
      vertex -23.2227 -31.5401 -10
      vertex -23.0113 -31.0653 -12
      vertex -23.0113 -31.0653 -10
    endloop
  endfacet
  facet normal 0.913546 -0.406735 0
    outer loop
      vertex -23.0113 -31.0653 -12
      vertex -23.2227 -31.5401 -10
      vertex -23.2227 -31.5401 -12
    endloop
  endfacet
  facet normal 0.66913 -0.743145 0
    outer loop
      vertex -23.0113 -31.0653 -12
      vertex -22.625 -30.7175 -10
      vertex -23.0113 -31.0653 -10
    endloop
  endfacet
  facet normal 0.66913 -0.743145 0
    outer loop
      vertex -22.625 -30.7175 -10
      vertex -23.0113 -31.0653 -12
      vertex -22.625 -30.7175 -12
    endloop
  endfacet
  facet normal 0.309019 0.951056 -0
    outer loop
      vertex -22.1307 -33.0432 -12
      vertex -22.625 -32.8825 -10
      vertex -22.1307 -33.0432 -10
    endloop
  endfacet
  facet normal 0.309019 0.951056 0
    outer loop
      vertex -22.625 -32.8825 -10
      vertex -22.1307 -33.0432 -12
      vertex -22.625 -32.8825 -12
    endloop
  endfacet
  facet normal 0.913545 0.406738 0
    outer loop
      vertex -23.0113 -32.5347 -10
      vertex -23.2227 -32.0599 -12
      vertex -23.2227 -32.0599 -10
    endloop
  endfacet
  facet normal 0.913545 0.406738 0
    outer loop
      vertex -23.2227 -32.0599 -12
      vertex -23.0113 -32.5347 -10
      vertex -23.0113 -32.5347 -12
    endloop
  endfacet
  facet normal -0.809018 0.587783 0
    outer loop
      vertex -21.1636 -32.7289 -12
      vertex -20.8581 -32.3084 -10
      vertex -20.8581 -32.3084 -12
    endloop
  endfacet
  facet normal -0.809018 0.587783 0
    outer loop
      vertex -20.8581 -32.3084 -10
      vertex -21.1636 -32.7289 -12
      vertex -21.1636 -32.7289 -10
    endloop
  endfacet
  facet normal -0.978148 0.207909 0
    outer loop
      vertex -20.8581 -32.3084 -12
      vertex -20.75 -31.8 -10
      vertex -20.75 -31.8 -12
    endloop
  endfacet
  facet normal -0.978148 0.207909 0
    outer loop
      vertex -20.75 -31.8 -10
      vertex -20.8581 -32.3084 -12
      vertex -20.8581 -32.3084 -10
    endloop
  endfacet
  facet normal 0.669132 0.743143 -0
    outer loop
      vertex -22.625 -32.8825 -12
      vertex -23.0113 -32.5347 -10
      vertex -22.625 -32.8825 -10
    endloop
  endfacet
  facet normal 0.669132 0.743143 0
    outer loop
      vertex -23.0113 -32.5347 -10
      vertex -22.625 -32.8825 -12
      vertex -23.0113 -32.5347 -12
    endloop
  endfacet
  facet normal -0.978148 -0.207911 0
    outer loop
      vertex 26 42 -5
      vertex 25.8487 42.7118 0.000999451
      vertex 25.8487 42.7118 -5
    endloop
  endfacet
  facet normal -0.978148 -0.207911 0
    outer loop
      vertex 25.8487 42.7118 0.000999451
      vertex 26 42 -5
      vertex 26 42 0.000999451
    endloop
  endfacet
  facet normal 1 -0 0
    outer loop
      vertex 22.5382 41.6362 0.000999451
      vertex 22.5382 42.3638 -5
      vertex 22.5382 42.3638 0.000999451
    endloop
  endfacet
  facet normal 1 0 0
    outer loop
      vertex 22.5382 42.3638 -5
      vertex 22.5382 41.6362 0.000999451
      vertex 22.5382 41.6362 -5
    endloop
  endfacet
  facet normal -0.104529 -0.994522 0
    outer loop
      vertex 24.0671 43.7404 -5
      vertex 24.7908 43.6643 0.000999451
      vertex 24.0671 43.7404 0.000999451
    endloop
  endfacet
  facet normal -0.104529 -0.994522 -0
    outer loop
      vertex 24.7908 43.6643 0.000999451
      vertex 24.0671 43.7404 -5
      vertex 24.7908 43.6643 -5
    endloop
  endfacet
  facet normal -0.809017 -0.587786 0
    outer loop
      vertex 25.8487 42.7118 -5
      vertex 25.421 43.3005 0.000999451
      vertex 25.421 43.3005 -5
    endloop
  endfacet
  facet normal -0.809017 -0.587786 0
    outer loop
      vertex 25.421 43.3005 0.000999451
      vertex 25.8487 42.7118 -5
      vertex 25.8487 42.7118 0.000999451
    endloop
  endfacet
  facet normal -0.104529 0.994522 0
    outer loop
      vertex 24.7908 40.3357 -5
      vertex 24.0671 40.2596 0.000999451
      vertex 24.7908 40.3357 0.000999451
    endloop
  endfacet
  facet normal -0.104529 0.994522 0
    outer loop
      vertex 24.0671 40.2596 0.000999451
      vertex 24.7908 40.3357 -5
      vertex 24.0671 40.2596 -5
    endloop
  endfacet
  facet normal -0.5 0.866025 0
    outer loop
      vertex 25.421 40.6995 -5
      vertex 24.7908 40.3357 0.000999451
      vertex 25.421 40.6995 0.000999451
    endloop
  endfacet
  facet normal -0.5 0.866025 0
    outer loop
      vertex 24.7908 40.3357 0.000999451
      vertex 25.421 40.6995 -5
      vertex 24.7908 40.3357 -5
    endloop
  endfacet
  facet normal -0.5 -0.866025 0
    outer loop
      vertex 24.7908 43.6643 -5
      vertex 25.421 43.3005 0.000999451
      vertex 24.7908 43.6643 0.000999451
    endloop
  endfacet
  facet normal -0.5 -0.866025 -0
    outer loop
      vertex 25.421 43.3005 0.000999451
      vertex 24.7908 43.6643 -5
      vertex 25.421 43.3005 -5
    endloop
  endfacet
  facet normal 0.66913 -0.743145 0
    outer loop
      vertex 22.8342 43.0286 -5
      vertex 23.375 43.5155 0.000999451
      vertex 22.8342 43.0286 0.000999451
    endloop
  endfacet
  facet normal 0.66913 -0.743145 0
    outer loop
      vertex 23.375 43.5155 0.000999451
      vertex 22.8342 43.0286 -5
      vertex 23.375 43.5155 -5
    endloop
  endfacet
  facet normal 0.913546 -0.406736 0
    outer loop
      vertex 22.5382 42.3638 0.000999451
      vertex 22.8342 43.0286 -5
      vertex 22.8342 43.0286 0.000999451
    endloop
  endfacet
  facet normal 0.913546 -0.406736 0
    outer loop
      vertex 22.8342 43.0286 -5
      vertex 22.5382 42.3638 0.000999451
      vertex 22.5382 42.3638 -5
    endloop
  endfacet
  facet normal 0.309017 -0.951056 0
    outer loop
      vertex 23.375 43.5155 -5
      vertex 24.0671 43.7404 0.000999451
      vertex 23.375 43.5155 0.000999451
    endloop
  endfacet
  facet normal 0.309017 -0.951056 0
    outer loop
      vertex 24.0671 43.7404 0.000999451
      vertex 23.375 43.5155 -5
      vertex 24.0671 43.7404 -5
    endloop
  endfacet
  facet normal 0.309017 0.951056 -0
    outer loop
      vertex 24.0671 40.2596 -5
      vertex 23.375 40.4845 0.000999451
      vertex 24.0671 40.2596 0.000999451
    endloop
  endfacet
  facet normal 0.309017 0.951056 0
    outer loop
      vertex 23.375 40.4845 0.000999451
      vertex 24.0671 40.2596 -5
      vertex 23.375 40.4845 -5
    endloop
  endfacet
  facet normal 0.913546 0.406736 0
    outer loop
      vertex 22.8342 40.9714 0.000999451
      vertex 22.5382 41.6362 -5
      vertex 22.5382 41.6362 0.000999451
    endloop
  endfacet
  facet normal 0.913546 0.406736 0
    outer loop
      vertex 22.5382 41.6362 -5
      vertex 22.8342 40.9714 0.000999451
      vertex 22.8342 40.9714 -5
    endloop
  endfacet
  facet normal -0.809017 0.587786 0
    outer loop
      vertex 25.421 40.6995 -5
      vertex 25.8487 41.2882 0.000999451
      vertex 25.8487 41.2882 -5
    endloop
  endfacet
  facet normal -0.809017 0.587786 0
    outer loop
      vertex 25.8487 41.2882 0.000999451
      vertex 25.421 40.6995 -5
      vertex 25.421 40.6995 0.000999451
    endloop
  endfacet
  facet normal 0.66913 0.743145 -0
    outer loop
      vertex 23.375 40.4845 -5
      vertex 22.8342 40.9714 0.000999451
      vertex 23.375 40.4845 0.000999451
    endloop
  endfacet
  facet normal 0.66913 0.743145 0
    outer loop
      vertex 22.8342 40.9714 0.000999451
      vertex 23.375 40.4845 -5
      vertex 22.8342 40.9714 -5
    endloop
  endfacet
  facet normal -0.978148 0.207911 0
    outer loop
      vertex 25.8487 41.2882 -5
      vertex 26 42 0.000999451
      vertex 26 42 -5
    endloop
  endfacet
  facet normal -0.978148 0.207911 0
    outer loop
      vertex 26 42 0.000999451
      vertex 25.8487 41.2882 -5
      vertex 25.8487 41.2882 0.000999451
    endloop
  endfacet
  facet normal -0.978148 -0.207911 0
    outer loop
      vertex 26 -42 -5
      vertex 25.8487 -41.2882 0.000999451
      vertex 25.8487 -41.2882 -5
    endloop
  endfacet
  facet normal -0.978148 -0.207911 0
    outer loop
      vertex 25.8487 -41.2882 0.000999451
      vertex 26 -42 -5
      vertex 26 -42 0.000999451
    endloop
  endfacet
  facet normal 1 -0 0
    outer loop
      vertex 22.5382 -42.3638 0.000999451
      vertex 22.5382 -41.6362 -5
      vertex 22.5382 -41.6362 0.000999451
    endloop
  endfacet
  facet normal 1 0 0
    outer loop
      vertex 22.5382 -41.6362 -5
      vertex 22.5382 -42.3638 0.000999451
      vertex 22.5382 -42.3638 -5
    endloop
  endfacet
  facet normal -0.104529 -0.994522 0
    outer loop
      vertex 24.0671 -40.2596 -5
      vertex 24.7908 -40.3357 0.000999451
      vertex 24.0671 -40.2596 0.000999451
    endloop
  endfacet
  facet normal -0.104529 -0.994522 -0
    outer loop
      vertex 24.7908 -40.3357 0.000999451
      vertex 24.0671 -40.2596 -5
      vertex 24.7908 -40.3357 -5
    endloop
  endfacet
  facet normal -0.809017 -0.587786 0
    outer loop
      vertex 25.8487 -41.2882 -5
      vertex 25.421 -40.6995 0.000999451
      vertex 25.421 -40.6995 -5
    endloop
  endfacet
  facet normal -0.809017 -0.587786 0
    outer loop
      vertex 25.421 -40.6995 0.000999451
      vertex 25.8487 -41.2882 -5
      vertex 25.8487 -41.2882 0.000999451
    endloop
  endfacet
  facet normal -0.104529 0.994522 0
    outer loop
      vertex 24.7908 -43.6643 -5
      vertex 24.0671 -43.7404 0.000999451
      vertex 24.7908 -43.6643 0.000999451
    endloop
  endfacet
  facet normal -0.104529 0.994522 0
    outer loop
      vertex 24.0671 -43.7404 0.000999451
      vertex 24.7908 -43.6643 -5
      vertex 24.0671 -43.7404 -5
    endloop
  endfacet
  facet normal -0.5 0.866025 0
    outer loop
      vertex 25.421 -43.3005 -5
      vertex 24.7908 -43.6643 0.000999451
      vertex 25.421 -43.3005 0.000999451
    endloop
  endfacet
  facet normal -0.5 0.866025 0
    outer loop
      vertex 24.7908 -43.6643 0.000999451
      vertex 25.421 -43.3005 -5
      vertex 24.7908 -43.6643 -5
    endloop
  endfacet
  facet normal -0.5 -0.866025 0
    outer loop
      vertex 24.7908 -40.3357 -5
      vertex 25.421 -40.6995 0.000999451
      vertex 24.7908 -40.3357 0.000999451
    endloop
  endfacet
  facet normal -0.5 -0.866025 -0
    outer loop
      vertex 25.421 -40.6995 0.000999451
      vertex 24.7908 -40.3357 -5
      vertex 25.421 -40.6995 -5
    endloop
  endfacet
  facet normal 0.66913 -0.743145 0
    outer loop
      vertex 22.8342 -40.9714 -5
      vertex 23.375 -40.4845 0.000999451
      vertex 22.8342 -40.9714 0.000999451
    endloop
  endfacet
  facet normal 0.66913 -0.743145 0
    outer loop
      vertex 23.375 -40.4845 0.000999451
      vertex 22.8342 -40.9714 -5
      vertex 23.375 -40.4845 -5
    endloop
  endfacet
  facet normal 0.913546 -0.406736 0
    outer loop
      vertex 22.5382 -41.6362 0.000999451
      vertex 22.8342 -40.9714 -5
      vertex 22.8342 -40.9714 0.000999451
    endloop
  endfacet
  facet normal 0.913546 -0.406736 0
    outer loop
      vertex 22.8342 -40.9714 -5
      vertex 22.5382 -41.6362 0.000999451
      vertex 22.5382 -41.6362 -5
    endloop
  endfacet
  facet normal 0.309017 -0.951056 0
    outer loop
      vertex 23.375 -40.4845 -5
      vertex 24.0671 -40.2596 0.000999451
      vertex 23.375 -40.4845 0.000999451
    endloop
  endfacet
  facet normal 0.309017 -0.951056 0
    outer loop
      vertex 24.0671 -40.2596 0.000999451
      vertex 23.375 -40.4845 -5
      vertex 24.0671 -40.2596 -5
    endloop
  endfacet
  facet normal -0.978148 0.207911 0
    outer loop
      vertex 25.8487 -42.7118 -5
      vertex 26 -42 0.000999451
      vertex 26 -42 -5
    endloop
  endfacet
  facet normal -0.978148 0.207911 0
    outer loop
      vertex 26 -42 0.000999451
      vertex 25.8487 -42.7118 -5
      vertex 25.8487 -42.7118 0.000999451
    endloop
  endfacet
  facet normal 0.309017 0.951056 -0
    outer loop
      vertex 24.0671 -43.7404 -5
      vertex 23.375 -43.5155 0.000999451
      vertex 24.0671 -43.7404 0.000999451
    endloop
  endfacet
  facet normal 0.309017 0.951056 0
    outer loop
      vertex 23.375 -43.5155 0.000999451
      vertex 24.0671 -43.7404 -5
      vertex 23.375 -43.5155 -5
    endloop
  endfacet
  facet normal 0.913546 0.406736 0
    outer loop
      vertex 22.8342 -43.0286 0.000999451
      vertex 22.5382 -42.3638 -5
      vertex 22.5382 -42.3638 0.000999451
    endloop
  endfacet
  facet normal 0.913546 0.406736 0
    outer loop
      vertex 22.5382 -42.3638 -5
      vertex 22.8342 -43.0286 0.000999451
      vertex 22.8342 -43.0286 -5
    endloop
  endfacet
  facet normal -0.809017 0.587786 0
    outer loop
      vertex 25.421 -43.3005 -5
      vertex 25.8487 -42.7118 0.000999451
      vertex 25.8487 -42.7118 -5
    endloop
  endfacet
  facet normal -0.809017 0.587786 0
    outer loop
      vertex 25.8487 -42.7118 0.000999451
      vertex 25.421 -43.3005 -5
      vertex 25.421 -43.3005 0.000999451
    endloop
  endfacet
  facet normal 0.66913 0.743145 -0
    outer loop
      vertex 23.375 -43.5155 -5
      vertex 22.8342 -43.0286 0.000999451
      vertex 23.375 -43.5155 0.000999451
    endloop
  endfacet
  facet normal 0.66913 0.743145 0
    outer loop
      vertex 22.8342 -43.0286 0.000999451
      vertex 23.375 -43.5155 -5
      vertex 22.8342 -43.0286 -5
    endloop
  endfacet
  facet normal -0.978148 -0.207911 0
    outer loop
      vertex -30.25 0 -5
      vertex -30.4013 0.711788 0.000999451
      vertex -30.4013 0.711788 -5
    endloop
  endfacet
  facet normal -0.978148 -0.207911 0
    outer loop
      vertex -30.4013 0.711788 0.000999451
      vertex -30.25 0 -5
      vertex -30.25 0 0.000999451
    endloop
  endfacet
  facet normal 1 -0 0
    outer loop
      vertex -33.7118 -0.363845 0.000999451
      vertex -33.7118 0.363845 -5
      vertex -33.7118 0.363845 0.000999451
    endloop
  endfacet
  facet normal 1 0 0
    outer loop
      vertex -33.7118 0.363845 -5
      vertex -33.7118 -0.363845 0.000999451
      vertex -33.7118 -0.363845 -5
    endloop
  endfacet
  facet normal -0.104528 -0.994522 0
    outer loop
      vertex -32.1829 1.74041 -5
      vertex -31.4592 1.66435 0.000999451
      vertex -32.1829 1.74041 0.000999451
    endloop
  endfacet
  facet normal -0.104528 -0.994522 -0
    outer loop
      vertex -31.4592 1.66435 0.000999451
      vertex -32.1829 1.74041 -5
      vertex -31.4592 1.66435 -5
    endloop
  endfacet
  facet normal -0.809017 -0.587786 0
    outer loop
      vertex -30.4013 0.711788 -5
      vertex -30.829 1.3005 0.000999451
      vertex -30.829 1.3005 -5
    endloop
  endfacet
  facet normal -0.809017 -0.587786 0
    outer loop
      vertex -30.829 1.3005 0.000999451
      vertex -30.4013 0.711788 -5
      vertex -30.4013 0.711788 0.000999451
    endloop
  endfacet
  facet normal -0.809017 0.587786 0
    outer loop
      vertex -30.829 -1.3005 -5
      vertex -30.4013 -0.711788 0.000999451
      vertex -30.4013 -0.711788 -5
    endloop
  endfacet
  facet normal -0.809017 0.587786 0
    outer loop
      vertex -30.4013 -0.711788 0.000999451
      vertex -30.829 -1.3005 -5
      vertex -30.829 -1.3005 0.000999451
    endloop
  endfacet
  facet normal -0.5 0.866025 0
    outer loop
      vertex -30.829 -1.3005 -5
      vertex -31.4592 -1.66435 0.000999451
      vertex -30.829 -1.3005 0.000999451
    endloop
  endfacet
  facet normal -0.5 0.866025 0
    outer loop
      vertex -31.4592 -1.66435 0.000999451
      vertex -30.829 -1.3005 -5
      vertex -31.4592 -1.66435 -5
    endloop
  endfacet
  facet normal -0.104528 0.994522 0
    outer loop
      vertex -31.4592 -1.66435 -5
      vertex -32.1829 -1.74041 0.000999451
      vertex -31.4592 -1.66435 0.000999451
    endloop
  endfacet
  facet normal -0.104528 0.994522 0
    outer loop
      vertex -32.1829 -1.74041 0.000999451
      vertex -31.4592 -1.66435 -5
      vertex -32.1829 -1.74041 -5
    endloop
  endfacet
  facet normal -0.5 -0.866025 0
    outer loop
      vertex -31.4592 1.66435 -5
      vertex -30.829 1.3005 0.000999451
      vertex -31.4592 1.66435 0.000999451
    endloop
  endfacet
  facet normal -0.5 -0.866025 -0
    outer loop
      vertex -30.829 1.3005 0.000999451
      vertex -31.4592 1.66435 -5
      vertex -30.829 1.3005 -5
    endloop
  endfacet
  facet normal 0.309016 -0.951057 0
    outer loop
      vertex -32.875 1.51554 -5
      vertex -32.1829 1.74041 0.000999451
      vertex -32.875 1.51554 0.000999451
    endloop
  endfacet
  facet normal 0.309016 -0.951057 0
    outer loop
      vertex -32.1829 1.74041 0.000999451
      vertex -32.875 1.51554 -5
      vertex -32.1829 1.74041 -5
    endloop
  endfacet
  facet normal 0.913545 -0.406737 0
    outer loop
      vertex -33.7118 0.363845 0.000999451
      vertex -33.4158 1.02862 -5
      vertex -33.4158 1.02862 0.000999451
    endloop
  endfacet
  facet normal 0.913545 -0.406737 0
    outer loop
      vertex -33.4158 1.02862 -5
      vertex -33.7118 0.363845 0.000999451
      vertex -33.7118 0.363845 -5
    endloop
  endfacet
  facet normal 0.669131 -0.743144 0
    outer loop
      vertex -33.4158 1.02862 -5
      vertex -32.875 1.51554 0.000999451
      vertex -33.4158 1.02862 0.000999451
    endloop
  endfacet
  facet normal 0.669131 -0.743144 0
    outer loop
      vertex -32.875 1.51554 0.000999451
      vertex -33.4158 1.02862 -5
      vertex -32.875 1.51554 -5
    endloop
  endfacet
  facet normal 0.913545 0.406737 0
    outer loop
      vertex -33.4158 -1.02862 0.000999451
      vertex -33.7118 -0.363845 -5
      vertex -33.7118 -0.363845 0.000999451
    endloop
  endfacet
  facet normal 0.913545 0.406737 0
    outer loop
      vertex -33.7118 -0.363845 -5
      vertex -33.4158 -1.02862 0.000999451
      vertex -33.4158 -1.02862 -5
    endloop
  endfacet
  facet normal 0.309016 0.951057 -0
    outer loop
      vertex -32.1829 -1.74041 -5
      vertex -32.875 -1.51554 0.000999451
      vertex -32.1829 -1.74041 0.000999451
    endloop
  endfacet
  facet normal 0.309016 0.951057 0
    outer loop
      vertex -32.875 -1.51554 0.000999451
      vertex -32.1829 -1.74041 -5
      vertex -32.875 -1.51554 -5
    endloop
  endfacet
  facet normal 0.669131 0.743144 -0
    outer loop
      vertex -32.875 -1.51554 -5
      vertex -33.4158 -1.02862 0.000999451
      vertex -32.875 -1.51554 0.000999451
    endloop
  endfacet
  facet normal 0.669131 0.743144 0
    outer loop
      vertex -33.4158 -1.02862 0.000999451
      vertex -32.875 -1.51554 -5
      vertex -33.4158 -1.02862 -5
    endloop
  endfacet
  facet normal -0.978148 0.207911 0
    outer loop
      vertex -30.4013 -0.711788 -5
      vertex -30.25 0 0.000999451
      vertex -30.25 0 -5
    endloop
  endfacet
  facet normal -0.978148 0.207911 0
    outer loop
      vertex -30.25 0 0.000999451
      vertex -30.4013 -0.711788 -5
      vertex -30.4013 -0.711788 0.000999451
    endloop
  endfacet
  facet normal 1 0 0
    outer loop
      vertex -26 -10.5 0
      vertex -26 35.5 0.000999451
      vertex -26 -10.5 0.000999451
    endloop
  endfacet
  facet normal 1 0 0
    outer loop
      vertex -26 35.5 0.000999451
      vertex -26 -10.5 0
      vertex -26 35.5 -10
    endloop
  endfacet
  facet normal 1 0 0
    outer loop
      vertex -26 -35.5 -10
      vertex -26 -10.5 0
      vertex -26 -35.5 0
    endloop
  endfacet
  facet normal 1 0 0
    outer loop
      vertex -26 -10.5 0
      vertex -26 -35.5 -10
      vertex -26 35.5 -10
    endloop
  endfacet
  facet normal -1 0 0
    outer loop
      vertex 26 35.5 -10
      vertex 26 25 0
      vertex 26 35.5 0.000999451
    endloop
  endfacet
  facet normal -1 0 0
    outer loop
      vertex 26 35.5 -10
      vertex 26 -25 0
      vertex 26 25 0
    endloop
  endfacet
  facet normal -1 0 0
    outer loop
      vertex 26 -35.5 -10
      vertex 26 -25 0
      vertex 26 35.5 -10
    endloop
  endfacet
  facet normal -1 0 0
    outer loop
      vertex 26 -35.5 0.000999451
      vertex 26 -25 0
      vertex 26 -35.5 -10
    endloop
  endfacet
  facet normal -1 0 0
    outer loop
      vertex 26 -25 0
      vertex 26 -35.5 0.000999451
      vertex 26 -25 0.000999451
    endloop
  endfacet
  facet normal -1 -0 0
    outer loop
      vertex 26 35.5 0.000999451
      vertex 26 25 0
      vertex 26 25 0.000999451
    endloop
  endfacet
  facet normal 0 -1 0
    outer loop
      vertex -26 35.5 -10
      vertex 26 35.5 0.000999451
      vertex -26 35.5 0.000999451
    endloop
  endfacet
  facet normal 0 -1 -0
    outer loop
      vertex 26 35.5 0.000999451
      vertex -26 35.5 -10
      vertex 26 35.5 -10
    endloop
  endfacet
  facet normal 0 0 1
    outer loop
      vertex 21.375 30.7175 -10
      vertex -21.1636 30.8711 -10
      vertex 21.375 -30.7175 -10
    endloop
  endfacet
  facet normal 0 0 1
    outer loop
      vertex 21.375 -30.7175 -10
      vertex -20.8581 -31.2916 -10
      vertex -20.75 -31.8 -10
    endloop
  endfacet
  facet normal 0 0 1
    outer loop
      vertex -21.1636 -30.8711 -10
      vertex 21.375 -30.7175 -10
      vertex -21.1636 30.8711 -10
    endloop
  endfacet
  facet normal 0 0 1
    outer loop
      vertex 21.375 -30.7175 -10
      vertex -21.1636 -30.8711 -10
      vertex -20.8581 -31.2916 -10
    endloop
  endfacet
  facet normal -0 0 1
    outer loop
      vertex -21.6137 30.6112 -10
      vertex -21.1636 -30.8711 -10
      vertex -21.1636 30.8711 -10
    endloop
  endfacet
  facet normal 0 0 1
    outer loop
      vertex -21.6137 30.6112 -10
      vertex -21.6137 -30.6112 -10
      vertex -21.1636 -30.8711 -10
    endloop
  endfacet
  facet normal -0 0 1
    outer loop
      vertex -22.1307 30.5568 -10
      vertex -21.6137 -30.6112 -10
      vertex -21.6137 30.6112 -10
    endloop
  endfacet
  facet normal 0 0 1
    outer loop
      vertex -22.1307 30.5568 -10
      vertex -22.1307 -30.5568 -10
      vertex -21.6137 -30.6112 -10
    endloop
  endfacet
  facet normal 0 0 1
    outer loop
      vertex -22.625 30.7175 -10
      vertex -22.1307 -30.5568 -10
      vertex -22.1307 30.5568 -10
    endloop
  endfacet
  facet normal 0 0 1
    outer loop
      vertex -22.625 30.7175 -10
      vertex -22.625 -30.7175 -10
      vertex -22.1307 -30.5568 -10
    endloop
  endfacet
  facet normal 0 0 1
    outer loop
      vertex -23.0113 31.0653 -10
      vertex -22.625 -30.7175 -10
      vertex -22.625 30.7175 -10
    endloop
  endfacet
  facet normal 0 0 1
    outer loop
      vertex -23.0113 31.0653 -10
      vertex -23.0113 -31.0653 -10
      vertex -22.625 -30.7175 -10
    endloop
  endfacet
  facet normal 0 0 1
    outer loop
      vertex -26 35.5 -10
      vertex -23.0113 31.0653 -10
      vertex -23.2227 31.5401 -10
    endloop
  endfacet
  facet normal 0 0 1
    outer loop
      vertex -23.0113 31.0653 -10
      vertex -26 35.5 -10
      vertex -23.0113 -31.0653 -10
    endloop
  endfacet
  facet normal -0 0 1
    outer loop
      vertex 23.1419 -31.2916 -10
      vertex 26 -35.5 -10
      vertex 23.1419 31.2916 -10
    endloop
  endfacet
  facet normal 0 0 1
    outer loop
      vertex 26 -35.5 -10
      vertex 23.1419 -31.2916 -10
      vertex 23.25 -31.8 -10
    endloop
  endfacet
  facet normal -0 0 1
    outer loop
      vertex 22.8364 30.8711 -10
      vertex 23.1419 -31.2916 -10
      vertex 23.1419 31.2916 -10
    endloop
  endfacet
  facet normal 0 0 1
    outer loop
      vertex 22.8364 30.8711 -10
      vertex 22.8364 -30.8711 -10
      vertex 23.1419 -31.2916 -10
    endloop
  endfacet
  facet normal -0 0 1
    outer loop
      vertex 22.3863 30.6112 -10
      vertex 22.8364 -30.8711 -10
      vertex 22.8364 30.8711 -10
    endloop
  endfacet
  facet normal 0 0 1
    outer loop
      vertex 22.3863 30.6112 -10
      vertex 22.3863 -30.6112 -10
      vertex 22.8364 -30.8711 -10
    endloop
  endfacet
  facet normal -0 0 1
    outer loop
      vertex 21.8693 30.5568 -10
      vertex 22.3863 -30.6112 -10
      vertex 22.3863 30.6112 -10
    endloop
  endfacet
  facet normal 0 0 1
    outer loop
      vertex 21.8693 30.5568 -10
      vertex 21.8693 -30.5568 -10
      vertex 22.3863 -30.6112 -10
    endloop
  endfacet
  facet normal 0 0 1
    outer loop
      vertex 21.375 30.7175 -10
      vertex 21.8693 -30.5568 -10
      vertex 21.8693 30.5568 -10
    endloop
  endfacet
  facet normal 0 0 1
    outer loop
      vertex 21.375 30.7175 -10
      vertex 21.375 -30.7175 -10
      vertex 21.8693 -30.5568 -10
    endloop
  endfacet
  facet normal 0 0 1
    outer loop
      vertex 20.7773 31.5401 -10
      vertex -20.8581 31.2916 -10
      vertex 20.9887 31.0653 -10
    endloop
  endfacet
  facet normal 0 0 1
    outer loop
      vertex -21.1636 30.8711 -10
      vertex 20.9887 31.0653 -10
      vertex -20.8581 31.2916 -10
    endloop
  endfacet
  facet normal 0 0 1
    outer loop
      vertex -20.8581 31.2916 -10
      vertex 20.7773 31.5401 -10
      vertex -20.75 31.8 -10
    endloop
  endfacet
  facet normal 0 0 1
    outer loop
      vertex 20.9887 31.0653 -10
      vertex -21.1636 30.8711 -10
      vertex 21.375 30.7175 -10
    endloop
  endfacet
  facet normal 0 0 1
    outer loop
      vertex 23.1419 31.2916 -10
      vertex 26 35.5 -10
      vertex 23.25 31.8 -10
    endloop
  endfacet
  facet normal 0 0 1
    outer loop
      vertex 26 35.5 -10
      vertex 23.1419 32.3084 -10
      vertex 23.25 31.8 -10
    endloop
  endfacet
  facet normal 0 0 1
    outer loop
      vertex 26 35.5 -10
      vertex 22.8364 32.7289 -10
      vertex 23.1419 32.3084 -10
    endloop
  endfacet
  facet normal 0 0 1
    outer loop
      vertex 26 35.5 -10
      vertex 22.3863 32.9888 -10
      vertex 22.8364 32.7289 -10
    endloop
  endfacet
  facet normal 0 0 1
    outer loop
      vertex 26 35.5 -10
      vertex 21.8693 33.0432 -10
      vertex 22.3863 32.9888 -10
    endloop
  endfacet
  facet normal 0 0 1
    outer loop
      vertex 26 35.5 -10
      vertex 21.375 32.8825 -10
      vertex 21.8693 33.0432 -10
    endloop
  endfacet
  facet normal -0 0 1
    outer loop
      vertex -20.75 31.8 -10
      vertex 20.7773 31.5401 -10
      vertex 20.7773 32.0599 -10
    endloop
  endfacet
  facet normal 0 0 1
    outer loop
      vertex 21.375 -30.7175 -10
      vertex -20.75 -31.8 -10
      vertex 20.9887 -31.0653 -10
    endloop
  endfacet
  facet normal 0 0 1
    outer loop
      vertex 20.9887 -31.0653 -10
      vertex -20.75 -31.8 -10
      vertex 20.7773 -31.5401 -10
    endloop
  endfacet
  facet normal -0 0 1
    outer loop
      vertex -20.8581 32.3084 -10
      vertex 20.7773 32.0599 -10
      vertex 20.9887 32.5347 -10
    endloop
  endfacet
  facet normal -0 0 1
    outer loop
      vertex -21.1636 32.7289 -10
      vertex 20.9887 32.5347 -10
      vertex 21.375 32.8825 -10
    endloop
  endfacet
  facet normal -0 0 1
    outer loop
      vertex -21.6137 32.9888 -10
      vertex 21.375 32.8825 -10
      vertex 26 35.5 -10
    endloop
  endfacet
  facet normal 0 0 1
    outer loop
      vertex 20.7773 32.0599 -10
      vertex -20.8581 32.3084 -10
      vertex -20.75 31.8 -10
    endloop
  endfacet
  facet normal 0 0 1
    outer loop
      vertex 20.9887 32.5347 -10
      vertex -21.1636 32.7289 -10
      vertex -20.8581 32.3084 -10
    endloop
  endfacet
  facet normal 0 0 1
    outer loop
      vertex 21.375 32.8825 -10
      vertex -21.6137 32.9888 -10
      vertex -21.1636 32.7289 -10
    endloop
  endfacet
  facet normal -0 0 1
    outer loop
      vertex -26 35.5 -10
      vertex -21.6137 32.9888 -10
      vertex 26 35.5 -10
    endloop
  endfacet
  facet normal 0 0 1
    outer loop
      vertex -26 35.5 -10
      vertex -23.2227 31.5401 -10
      vertex -23.2227 32.0599 -10
    endloop
  endfacet
  facet normal 0 0 1
    outer loop
      vertex -26 -35.5 -10
      vertex -23.0113 -31.0653 -10
      vertex -26 35.5 -10
    endloop
  endfacet
  facet normal 0 0 1
    outer loop
      vertex -23.0113 -31.0653 -10
      vertex -26 -35.5 -10
      vertex -23.2227 -31.5401 -10
    endloop
  endfacet
  facet normal 0 0 1
    outer loop
      vertex -23.0113 32.5347 -10
      vertex -26 35.5 -10
      vertex -23.2227 32.0599 -10
    endloop
  endfacet
  facet normal 0 0 1
    outer loop
      vertex -22.625 32.8825 -10
      vertex -26 35.5 -10
      vertex -23.0113 32.5347 -10
    endloop
  endfacet
  facet normal 0 0 1
    outer loop
      vertex -22.1307 33.0432 -10
      vertex -26 35.5 -10
      vertex -22.625 32.8825 -10
    endloop
  endfacet
  facet normal 0 0 1
    outer loop
      vertex -21.6137 32.9888 -10
      vertex -26 35.5 -10
      vertex -22.1307 33.0432 -10
    endloop
  endfacet
  facet normal 0 0 1
    outer loop
      vertex 26 35.5 -10
      vertex 23.1419 31.2916 -10
      vertex 26 -35.5 -10
    endloop
  endfacet
  facet normal -0 0 1
    outer loop
      vertex 23.1419 -32.3084 -10
      vertex 26 -35.5 -10
      vertex 23.25 -31.8 -10
    endloop
  endfacet
  facet normal -0 0 1
    outer loop
      vertex 22.8364 -32.7289 -10
      vertex 26 -35.5 -10
      vertex 23.1419 -32.3084 -10
    endloop
  endfacet
  facet normal -0 0 1
    outer loop
      vertex 22.3863 -32.9888 -10
      vertex 26 -35.5 -10
      vertex 22.8364 -32.7289 -10
    endloop
  endfacet
  facet normal -0 0 1
    outer loop
      vertex 21.8693 -33.0432 -10
      vertex 26 -35.5 -10
      vertex 22.3863 -32.9888 -10
    endloop
  endfacet
  facet normal 0 0 1
    outer loop
      vertex 21.375 -32.8825 -10
      vertex 26 -35.5 -10
      vertex 21.8693 -33.0432 -10
    endloop
  endfacet
  facet normal 0 0 1
    outer loop
      vertex 20.7773 -31.5401 -10
      vertex -20.75 -31.8 -10
      vertex 20.7773 -32.0599 -10
    endloop
  endfacet
  facet normal 0 0 1
    outer loop
      vertex -20.8581 -32.3084 -10
      vertex 20.7773 -32.0599 -10
      vertex -20.75 -31.8 -10
    endloop
  endfacet
  facet normal 0 0 1
    outer loop
      vertex 20.7773 -32.0599 -10
      vertex -20.8581 -32.3084 -10
      vertex 20.9887 -32.5347 -10
    endloop
  endfacet
  facet normal 0 0 1
    outer loop
      vertex -21.1636 -32.7289 -10
      vertex 20.9887 -32.5347 -10
      vertex -20.8581 -32.3084 -10
    endloop
  endfacet
  facet normal 0 0 1
    outer loop
      vertex 20.9887 -32.5347 -10
      vertex -21.1636 -32.7289 -10
      vertex 21.375 -32.8825 -10
    endloop
  endfacet
  facet normal 0 0 1
    outer loop
      vertex -21.6137 -32.9888 -10
      vertex 21.375 -32.8825 -10
      vertex -21.1636 -32.7289 -10
    endloop
  endfacet
  facet normal 0 0 1
    outer loop
      vertex 21.375 -32.8825 -10
      vertex -21.6137 -32.9888 -10
      vertex 26 -35.5 -10
    endloop
  endfacet
  facet normal 0 0 1
    outer loop
      vertex -26 -35.5 -10
      vertex -21.6137 -32.9888 -10
      vertex -22.1307 -33.0432 -10
    endloop
  endfacet
  facet normal 0 0 1
    outer loop
      vertex -21.6137 -32.9888 -10
      vertex -26 -35.5 -10
      vertex 26 -35.5 -10
    endloop
  endfacet
  facet normal 0 0 1
    outer loop
      vertex -22.625 -32.8825 -10
      vertex -26 -35.5 -10
      vertex -22.1307 -33.0432 -10
    endloop
  endfacet
  facet normal 0 0 1
    outer loop
      vertex -23.0113 -32.5347 -10
      vertex -26 -35.5 -10
      vertex -22.625 -32.8825 -10
    endloop
  endfacet
  facet normal 0 0 1
    outer loop
      vertex -23.2227 -32.0599 -10
      vertex -26 -35.5 -10
      vertex -23.0113 -32.5347 -10
    endloop
  endfacet
  facet normal 0 0 1
    outer loop
      vertex -23.2227 -31.5401 -10
      vertex -26 -35.5 -10
      vertex -23.2227 -32.0599 -10
    endloop
  endfacet
  facet normal 0 1 0
    outer loop
      vertex 26 -35.5 0.000999451
      vertex 3 -35.5 0
      vertex 3 -35.5 0.000999451
    endloop
  endfacet
  facet normal 0 1 -0
    outer loop
      vertex 26 -35.5 -10
      vertex 3 -35.5 0
      vertex 26 -35.5 0.000999451
    endloop
  endfacet
  facet normal 0 1 0
    outer loop
      vertex -26 -35.5 -10
      vertex 3 -35.5 0
      vertex 26 -35.5 -10
    endloop
  endfacet
  facet normal 0 1 0
    outer loop
      vertex 3 -35.5 0
      vertex -26 -35.5 -10
      vertex -26 -35.5 0
    endloop
  endfacet
  facet normal -0 0 1
    outer loop
      vertex 26 25 0
      vertex 28 -25 0
      vertex 28 25 0
    endloop
  endfacet
  facet normal 0 0 1
    outer loop
      vertex 28 -25 0
      vertex 26 25 0
      vertex 26 -25 0
    endloop
  endfacet
  facet normal 0 1 -0
    outer loop
      vertex 28 -25 0
      vertex 26 -25 0.000999451
      vertex 28 -25 0.000999451
    endloop
  endfacet
  facet normal 0 1 0
    outer loop
      vertex 26 -25 0.000999451
      vertex 28 -25 0
      vertex 26 -25 0
    endloop
  endfacet
  facet normal 0 -1 0
    outer loop
      vertex 26 25 0
      vertex 28 25 0.000999451
      vertex 26 25 0.000999451
    endloop
  endfacet
  facet normal 0 -1 -0
    outer loop
      vertex 28 25 0.000999451
      vertex 26 25 0
      vertex 28 25 0
    endloop
  endfacet
  facet normal -1 0 0
    outer loop
      vertex 3 -37.5 0
      vertex 3 -35.5 0.000999451
      vertex 3 -35.5 0
    endloop
  endfacet
  facet normal -1 -0 0
    outer loop
      vertex 3 -35.5 0.000999451
      vertex 3 -37.5 0
      vertex 3 -37.5 0.000999451
    endloop
  endfacet
  facet normal 0 -1 0
    outer loop
      vertex -28 -10.5 0
      vertex -26 -10.5 0.000999451
      vertex -28 -10.5 0.000999451
    endloop
  endfacet
  facet normal 0 -1 -0
    outer loop
      vertex -26 -10.5 0.000999451
      vertex -28 -10.5 0
      vertex -26 -10.5 0
    endloop
  endfacet
  facet normal 0 0 1
    outer loop
      vertex -26 -10.5 0
      vertex -28 -10.5 0
      vertex -26 -35.5 0
    endloop
  endfacet
  facet normal -0 0 1
    outer loop
      vertex -26 -35.5 0
      vertex 3 -37.5 0
      vertex 3 -35.5 0
    endloop
  endfacet
  facet normal 0 0 1
    outer loop
      vertex -26 -35.5 0
      vertex -28 -37.5 0
      vertex 3 -37.5 0
    endloop
  endfacet
  facet normal 0 0 1
    outer loop
      vertex -28 -37.5 0
      vertex -26 -35.5 0
      vertex -28 -10.5 0
    endloop
  endfacet
  facet normal 0 0 1
    outer loop
      vertex -28 7.63426 0.000999451
      vertex -30.25 0 0.000999451
      vertex -28 -7.63426 0.000999451
    endloop
  endfacet
  facet normal 0 0 1
    outer loop
      vertex -28 7.63426 0.000999451
      vertex -30.4013 0.711788 0.000999451
      vertex -30.25 0 0.000999451
    endloop
  endfacet
  facet normal 0 0 1
    outer loop
      vertex -28 7.63426 0.000999451
      vertex -30.829 1.3005 0.000999451
      vertex -30.4013 0.711788 0.000999451
    endloop
  endfacet
  facet normal 0 0 1
    outer loop
      vertex -28 7.63426 0.000999451
      vertex -31.4592 1.66435 0.000999451
      vertex -30.829 1.3005 0.000999451
    endloop
  endfacet
  facet normal -0 0 1
    outer loop
      vertex -33.875 3.24759 0.000999451
      vertex -31.4592 1.66435 0.000999451
      vertex -28 7.63426 0.000999451
    endloop
  endfacet
  facet normal 0 0 1
    outer loop
      vertex -31.4592 1.66435 0.000999451
      vertex -33.875 3.24759 0.000999451
      vertex -32.1829 1.74041 0.000999451
    endloop
  endfacet
  facet normal 0 0 1
    outer loop
      vertex -32.1829 1.74041 0.000999451
      vertex -33.875 3.24759 0.000999451
      vertex -32.875 1.51554 0.000999451
    endloop
  endfacet
  facet normal 0 0 1
    outer loop
      vertex -33.4158 1.02862 0.000999451
      vertex -35.0338 2.20419 0.000999451
      vertex -33.7118 0.363845 0.000999451
    endloop
  endfacet
  facet normal -0 0 1
    outer loop
      vertex -35.0338 2.20419 0.000999451
      vertex -33.4158 1.02862 0.000999451
      vertex -33.875 3.24759 0.000999451
    endloop
  endfacet
  facet normal 0 0 1
    outer loop
      vertex -32.875 1.51554 0.000999451
      vertex -33.875 3.24759 0.000999451
      vertex -33.4158 1.02862 0.000999451
    endloop
  endfacet
  facet normal -0 0 1
    outer loop
      vertex -30.4013 -0.711788 0.000999451
      vertex -28 -7.63426 0.000999451
      vertex -30.25 0 0.000999451
    endloop
  endfacet
  facet normal -0 0 1
    outer loop
      vertex -30.829 -1.3005 0.000999451
      vertex -28 -7.63426 0.000999451
      vertex -30.4013 -0.711788 0.000999451
    endloop
  endfacet
  facet normal -0 0 1
    outer loop
      vertex -31.4592 -1.66435 0.000999451
      vertex -28 -7.63426 0.000999451
      vertex -30.829 -1.3005 0.000999451
    endloop
  endfacet
  facet normal 0 0 1
    outer loop
      vertex -33.875 -3.24759 0.000999451
      vertex -31.4592 -1.66435 0.000999451
      vertex -32.1829 -1.74041 0.000999451
    endloop
  endfacet
  facet normal 0 0 1
    outer loop
      vertex -33.875 -3.24759 0.000999451
      vertex -32.1829 -1.74041 0.000999451
      vertex -32.875 -1.51554 0.000999451
    endloop
  endfacet
  facet normal 0 0 1
    outer loop
      vertex -33.875 -3.24759 0.000999451
      vertex -32.875 -1.51554 0.000999451
      vertex -33.4158 -1.02862 0.000999451
    endloop
  endfacet
  facet normal 0 0 1
    outer loop
      vertex -31.4592 -1.66435 0.000999451
      vertex -33.875 -3.24759 0.000999451
      vertex -28 -7.63426 0.000999451
    endloop
  endfacet
  facet normal 0 0 1
    outer loop
      vertex -35.0338 -2.20419 0.000999451
      vertex -33.4158 -1.02862 0.000999451
      vertex -33.7118 -0.363845 0.000999451
    endloop
  endfacet
  facet normal -0 0 1
    outer loop
      vertex -35.6681 0.779669 0.000999451
      vertex -33.7118 0.363845 0.000999451
      vertex -35.0338 2.20419 0.000999451
    endloop
  endfacet
  facet normal 0 0 1
    outer loop
      vertex -33.7118 0.363845 0.000999451
      vertex -35.6681 0.779669 0.000999451
      vertex -33.7118 -0.363845 0.000999451
    endloop
  endfacet
  facet normal 0 0 1
    outer loop
      vertex -33.4158 -1.02862 0.000999451
      vertex -35.0338 -2.20419 0.000999451
      vertex -33.875 -3.24759 0.000999451
    endloop
  endfacet
  facet normal 0 0 1
    outer loop
      vertex -35.6681 -0.779669 0.000999451
      vertex -33.7118 -0.363845 0.000999451
      vertex -35.6681 0.779669 0.000999451
    endloop
  endfacet
  facet normal 0 0 1
    outer loop
      vertex -33.7118 -0.363845 0.000999451
      vertex -35.6681 -0.779669 0.000999451
      vertex -35.0338 -2.20419 0.000999451
    endloop
  endfacet
  facet normal 0 0 1
    outer loop
      vertex 25.421 40.6995 0.000999451
      vertex 28 42 0.000999451
      vertex 25.8487 41.2882 0.000999451
    endloop
  endfacet
  facet normal 0 0 1
    outer loop
      vertex 28 42 0.000999451
      vertex 25.421 40.6995 0.000999451
      vertex 26 35.5 0.000999451
    endloop
  endfacet
  facet normal -0 0 1
    outer loop
      vertex 24.7908 40.3357 0.000999451
      vertex 26 35.5 0.000999451
      vertex 25.421 40.6995 0.000999451
    endloop
  endfacet
  facet normal -0 0 1
    outer loop
      vertex 24.0671 40.2596 0.000999451
      vertex 26 35.5 0.000999451
      vertex 24.7908 40.3357 0.000999451
    endloop
  endfacet
  facet normal 0 0 1
    outer loop
      vertex 23.375 40.4845 0.000999451
      vertex 26 35.5 0.000999451
      vertex 24.0671 40.2596 0.000999451
    endloop
  endfacet
  facet normal 0 0 1
    outer loop
      vertex 11.9988 37.5 0.000999451
      vertex 23.375 40.4845 0.000999451
      vertex 22.8342 40.9714 0.000999451
    endloop
  endfacet
  facet normal 0 0 1
    outer loop
      vertex 22.5382 42.3638 0.000999451
      vertex 11.9988 37.5 0.000999451
      vertex 22.5382 41.6362 0.000999451
    endloop
  endfacet
  facet normal 0 0 1
    outer loop
      vertex 11.9988 37.5 0.000999451
      vertex 22.8342 40.9714 0.000999451
      vertex 22.5382 41.6362 0.000999451
    endloop
  endfacet
  facet normal 0 0 1
    outer loop
      vertex 23.375 40.4845 0.000999451
      vertex 11.9988 37.5 0.000999451
      vertex 26 35.5 0.000999451
    endloop
  endfacet
  facet normal 0 0 1
    outer loop
      vertex 11.9988 37.5 0.000999451
      vertex -26 35.5 0.000999451
      vertex 26 35.5 0.000999451
    endloop
  endfacet
  facet normal -0 0 1
    outer loop
      vertex -28 37.5 0.000999451
      vertex -26 35.5 0.000999451
      vertex 11.9988 37.5 0.000999451
    endloop
  endfacet
  facet normal 0 0 1
    outer loop
      vertex -28 7.63426 0.000999451
      vertex -26 35.5 0.000999451
      vertex -28 37.5 0.000999451
    endloop
  endfacet
  facet normal 0 0 1
    outer loop
      vertex -26 35.5 0.000999451
      vertex -28 7.63426 0.000999451
      vertex -26 -10.5 0.000999451
    endloop
  endfacet
  facet normal -0 0 1
    outer loop
      vertex -28 -7.63426 0.000999451
      vertex -26 -10.5 0.000999451
      vertex -28 7.63426 0.000999451
    endloop
  endfacet
  facet normal 0 0 1
    outer loop
      vertex -26 -10.5 0.000999451
      vertex -28 -7.63426 0.000999451
      vertex -28 -10.5 0.000999451
    endloop
  endfacet
  facet normal 0 0 1
    outer loop
      vertex 27.6758 43.5253 0.000999451
      vertex 25.8487 42.7118 0.000999451
      vertex 26 42 0.000999451
    endloop
  endfacet
  facet normal 0 0 1
    outer loop
      vertex 26.7592 44.7868 0.000999451
      vertex 25.421 43.3005 0.000999451
      vertex 25.8487 42.7118 0.000999451
    endloop
  endfacet
  facet normal 0 0 1
    outer loop
      vertex 25.4088 45.5665 0.000999451
      vertex 25.421 43.3005 0.000999451
      vertex 26.7592 44.7868 0.000999451
    endloop
  endfacet
  facet normal 0 0 1
    outer loop
      vertex 25.4088 45.5665 0.000999451
      vertex 24.7908 43.6643 0.000999451
      vertex 25.421 43.3005 0.000999451
    endloop
  endfacet
  facet normal 0 0 1
    outer loop
      vertex 25.4088 45.5665 0.000999451
      vertex 24.0671 43.7404 0.000999451
      vertex 24.7908 43.6643 0.000999451
    endloop
  endfacet
  facet normal 0 0 1
    outer loop
      vertex 23.858 45.7295 0.000999451
      vertex 24.0671 43.7404 0.000999451
      vertex 25.4088 45.5665 0.000999451
    endloop
  endfacet
  facet normal 0 0 1
    outer loop
      vertex 23.858 45.7295 0.000999451
      vertex 23.375 43.5155 0.000999451
      vertex 24.0671 43.7404 0.000999451
    endloop
  endfacet
  facet normal -0 0 1
    outer loop
      vertex 22.375 45.2476 0.000999451
      vertex 23.375 43.5155 0.000999451
      vertex 23.858 45.7295 0.000999451
    endloop
  endfacet
  facet normal 0 0 1
    outer loop
      vertex 23.375 43.5155 0.000999451
      vertex 22.375 45.2476 0.000999451
      vertex 22.8342 43.0286 0.000999451
    endloop
  endfacet
  facet normal 0 0 1
    outer loop
      vertex 11.9988 37.5 0.000999451
      vertex 22.5382 42.3638 0.000999451
      vertex 22.375 45.2476 0.000999451
    endloop
  endfacet
  facet normal 0 0 1
    outer loop
      vertex 22.8342 43.0286 0.000999451
      vertex 22.375 45.2476 0.000999451
      vertex 22.5382 42.3638 0.000999451
    endloop
  endfacet
  facet normal 0 0 1
    outer loop
      vertex 26 42 0.000999451
      vertex 28 42 0.000999451
      vertex 27.6758 43.5253 0.000999451
    endloop
  endfacet
  facet normal 0 0 1
    outer loop
      vertex 25.8487 42.7118 0.000999451
      vertex 27.6758 43.5253 0.000999451
      vertex 26.7592 44.7868 0.000999451
    endloop
  endfacet
  facet normal 0 0 1
    outer loop
      vertex 25.8487 41.2882 0.000999451
      vertex 28 42 0.000999451
      vertex 26 42 0.000999451
    endloop
  endfacet
  facet normal 0 0 1
    outer loop
      vertex 28 42 0.000999451
      vertex 26 35.5 0.000999451
      vertex 28 25 0.000999451
    endloop
  endfacet
  facet normal 0 0 1
    outer loop
      vertex 28 25 0.000999451
      vertex 26 35.5 0.000999451
      vertex 26 25 0.000999451
    endloop
  endfacet
  facet normal 0 0 1
    outer loop
      vertex 28 -42 0.000999451
      vertex 25.8487 -41.2882 0.000999451
      vertex 26 -42 0.000999451
    endloop
  endfacet
  facet normal 0 0 1
    outer loop
      vertex 28 -42 0.000999451
      vertex 25.421 -40.6995 0.000999451
      vertex 25.8487 -41.2882 0.000999451
    endloop
  endfacet
  facet normal 0 0 1
    outer loop
      vertex 26 -35.5 0.000999451
      vertex 24.7908 -40.3357 0.000999451
      vertex 25.421 -40.6995 0.000999451
    endloop
  endfacet
  facet normal 0 0 1
    outer loop
      vertex 26 -35.5 0.000999451
      vertex 24.0671 -40.2596 0.000999451
      vertex 24.7908 -40.3357 0.000999451
    endloop
  endfacet
  facet normal 0 0 1
    outer loop
      vertex 26 -35.5 0.000999451
      vertex 23.375 -40.4845 0.000999451
      vertex 24.0671 -40.2596 0.000999451
    endloop
  endfacet
  facet normal -0 0 1
    outer loop
      vertex 11.9988 -37.5 0.000999451
      vertex 23.375 -40.4845 0.000999451
      vertex 26 -35.5 0.000999451
    endloop
  endfacet
  facet normal 0 0 1
    outer loop
      vertex 11.9988 -37.5 0.000999451
      vertex 22.5382 -42.3638 0.000999451
      vertex 22.5382 -41.6362 0.000999451
    endloop
  endfacet
  facet normal 0 0 1
    outer loop
      vertex 22.5382 -42.3638 0.000999451
      vertex 11.9988 -37.5 0.000999451
      vertex 22.375 -45.2476 0.000999451
    endloop
  endfacet
  facet normal 0 0 1
    outer loop
      vertex 22.8342 -40.9714 0.000999451
      vertex 11.9988 -37.5 0.000999451
      vertex 22.5382 -41.6362 0.000999451
    endloop
  endfacet
  facet normal 0 0 1
    outer loop
      vertex 23.375 -40.4845 0.000999451
      vertex 11.9988 -37.5 0.000999451
      vertex 22.8342 -40.9714 0.000999451
    endloop
  endfacet
  facet normal -0 0 1
    outer loop
      vertex 3 -35.5 0.000999451
      vertex 11.9988 -37.5 0.000999451
      vertex 26 -35.5 0.000999451
    endloop
  endfacet
  facet normal 0 0 1
    outer loop
      vertex 11.9988 -37.5 0.000999451
      vertex 3 -35.5 0.000999451
      vertex 3 -37.5 0.000999451
    endloop
  endfacet
  facet normal -0 0 1
    outer loop
      vertex 26 -35.5 0.000999451
      vertex 28 -42 0.000999451
      vertex 28 -25 0.000999451
    endloop
  endfacet
  facet normal -0 0 1
    outer loop
      vertex 25.421 -40.6995 0.000999451
      vertex 28 -42 0.000999451
      vertex 26 -35.5 0.000999451
    endloop
  endfacet
  facet normal 0 0 1
    outer loop
      vertex 26 -35.5 0.000999451
      vertex 28 -25 0.000999451
      vertex 26 -25 0.000999451
    endloop
  endfacet
  facet normal 0 0 1
    outer loop
      vertex 28 -42 0.000999451
      vertex 26 -42 0.000999451
      vertex 27.6758 -43.5253 0.000999451
    endloop
  endfacet
  facet normal -0 0 1
    outer loop
      vertex 25.8487 -42.7118 0.000999451
      vertex 27.6758 -43.5253 0.000999451
      vertex 26 -42 0.000999451
    endloop
  endfacet
  facet normal 0 0 1
    outer loop
      vertex 27.6758 -43.5253 0.000999451
      vertex 25.8487 -42.7118 0.000999451
      vertex 26.7592 -44.7868 0.000999451
    endloop
  endfacet
  facet normal -0 0 1
    outer loop
      vertex 25.421 -43.3005 0.000999451
      vertex 26.7592 -44.7868 0.000999451
      vertex 25.8487 -42.7118 0.000999451
    endloop
  endfacet
  facet normal 0 0 1
    outer loop
      vertex 25.421 -43.3005 0.000999451
      vertex 25.4088 -45.5665 0.000999451
      vertex 26.7592 -44.7868 0.000999451
    endloop
  endfacet
  facet normal -0 0 1
    outer loop
      vertex 24.7908 -43.6643 0.000999451
      vertex 25.4088 -45.5665 0.000999451
      vertex 25.421 -43.3005 0.000999451
    endloop
  endfacet
  facet normal -0 0 1
    outer loop
      vertex 24.0671 -43.7404 0.000999451
      vertex 25.4088 -45.5665 0.000999451
      vertex 24.7908 -43.6643 0.000999451
    endloop
  endfacet
  facet normal 0 0 1
    outer loop
      vertex 24.0671 -43.7404 0.000999451
      vertex 23.858 -45.7295 0.000999451
      vertex 25.4088 -45.5665 0.000999451
    endloop
  endfacet
  facet normal 0 0 1
    outer loop
      vertex 23.375 -43.5155 0.000999451
      vertex 23.858 -45.7295 0.000999451
      vertex 24.0671 -43.7404 0.000999451
    endloop
  endfacet
  facet normal 0 0 1
    outer loop
      vertex 22.375 -45.2476 0.000999451
      vertex 23.375 -43.5155 0.000999451
      vertex 22.8342 -43.0286 0.000999451
    endloop
  endfacet
  facet normal 0 0 1
    outer loop
      vertex 22.375 -45.2476 0.000999451
      vertex 22.8342 -43.0286 0.000999451
      vertex 22.5382 -42.3638 0.000999451
    endloop
  endfacet
  facet normal 0 0 1
    outer loop
      vertex 23.375 -43.5155 0.000999451
      vertex 22.375 -45.2476 0.000999451
      vertex 23.858 -45.7295 0.000999451
    endloop
  endfacet
endsolid OpenSCAD_Model
