solid OpenSCAD_Model
  facet normal -1 0 0
    outer loop
      vertex -28 10.5 -22
      vertex -28 7.63426 -5
      vertex -28 10.5 -0.000999451
    endloop
  endfacet
  facet normal -1 0 0
    outer loop
      vertex -28 10.5 -22
      vertex -28 -7.63426 -5
      vertex -28 7.63426 -5
    endloop
  endfacet
  facet normal -1 0 0
    outer loop
      vertex -28 -37.5 -22
      vertex -28 -7.63426 -5
      vertex -28 10.5 -22
    endloop
  endfacet
  facet normal -1 0 0
    outer loop
      vertex -28 -37.5 -0.000999451
      vertex -28 -7.63426 -5
      vertex -28 -37.5 -22
    endloop
  endfacet
  facet normal -1 0 0
    outer loop
      vertex -28 -7.63426 -5
      vertex -28 -37.5 -0.000999451
      vertex -28 -7.63426 -0.000999451
    endloop
  endfacet
  facet normal -1 -0 0
    outer loop
      vertex -28 10.5 -0.000999451
      vertex -28 7.63426 -5
      vertex -28 7.63426 -0.000999451
    endloop
  endfacet
  facet normal 0 0 -1
    outer loop
      vertex 28 -37.5 -22
      vertex 19 -25 -22
      vertex 28 -25 -22
    endloop
  endfacet
  facet normal 0 0 -1
    outer loop
      vertex 19 -25 -22
      vertex 3 10.5 -22
      vertex 19 25 -22
    endloop
  endfacet
  facet normal 0 0 -1
    outer loop
      vertex -28 -37.5 -22
      vertex 19 -25 -22
      vertex 28 -37.5 -22
    endloop
  endfacet
  facet normal 0 0 -1
    outer loop
      vertex -28 -37.5 -22
      vertex 3 10.5 -22
      vertex 19 -25 -22
    endloop
  endfacet
  facet normal -0 0 -1
    outer loop
      vertex 3 10.5 -22
      vertex -28 -37.5 -22
      vertex -28 10.5 -22
    endloop
  endfacet
  facet normal 0 0 -1
    outer loop
      vertex 19 25 -22
      vertex 28 37.5 -22
      vertex 28 25 -22
    endloop
  endfacet
  facet normal 0 0 -1
    outer loop
      vertex 3 37.5 -22
      vertex 19 25 -22
      vertex 3 10.5 -22
    endloop
  endfacet
  facet normal 0 0 -1
    outer loop
      vertex 19 25 -22
      vertex 3 37.5 -22
      vertex 28 37.5 -22
    endloop
  endfacet
  facet normal 1 0 0
    outer loop
      vertex 28 -25 -0.000999451
      vertex 28 -37.5 -5
      vertex 28 -25 -22
    endloop
  endfacet
  facet normal 1 -0 0
    outer loop
      vertex 28 -42 -0.000999451
      vertex 28 -37.5 -5
      vertex 28 -25 -0.000999451
    endloop
  endfacet
  facet normal 1 0 0
    outer loop
      vertex 28 -37.5 -5
      vertex 28 -42 -0.000999451
      vertex 28 -42 -5
    endloop
  endfacet
  facet normal 1 0 0
    outer loop
      vertex 28 -25 -22
      vertex 28 -37.5 -5
      vertex 28 -37.5 -22
    endloop
  endfacet
  facet normal 1 0 0
    outer loop
      vertex 28 42 -0.000999451
      vertex 28 37.5 -5
      vertex 28 42 -5
    endloop
  endfacet
  facet normal 1 -0 0
    outer loop
      vertex 28 25 -0.000999451
      vertex 28 37.5 -5
      vertex 28 42 -0.000999451
    endloop
  endfacet
  facet normal 1 0 0
    outer loop
      vertex 28 25 -22
      vertex 28 37.5 -5
      vertex 28 25 -0.000999451
    endloop
  endfacet
  facet normal 1 0 0
    outer loop
      vertex 28 37.5 -5
      vertex 28 25 -22
      vertex 28 37.5 -22
    endloop
  endfacet
  facet normal 0 -1 0
    outer loop
      vertex -28 -37.5 -0.000999451
      vertex 11.9988 -37.5 -5
      vertex 11.9988 -37.5 -0.000999451
    endloop
  endfacet
  facet normal 0 -1 0
    outer loop
      vertex -28 -37.5 -22
      vertex 11.9988 -37.5 -5
      vertex -28 -37.5 -0.000999451
    endloop
  endfacet
  facet normal 0 -1 0
    outer loop
      vertex 28 -37.5 -22
      vertex 11.9988 -37.5 -5
      vertex -28 -37.5 -22
    endloop
  endfacet
  facet normal 0 -1 0
    outer loop
      vertex 11.9988 -37.5 -5
      vertex 28 -37.5 -22
      vertex 28 -37.5 -5
    endloop
  endfacet
  facet normal 0 1 0
    outer loop
      vertex 28 37.5 -5
      vertex 28 37.5 -22
      vertex 11.9988 37.5 -5
    endloop
  endfacet
  facet normal 0 1 -0
    outer loop
      vertex 11.9988 37.5 -5
      vertex 3 37.5 -0.000999451
      vertex 11.9988 37.5 -0.000999451
    endloop
  endfacet
  facet normal 0 1 0
    outer loop
      vertex 3 37.5 -22
      vertex 11.9988 37.5 -5
      vertex 28 37.5 -22
    endloop
  endfacet
  facet normal 0 1 0
    outer loop
      vertex 11.9988 37.5 -5
      vertex 3 37.5 -22
      vertex 3 37.5 -0.000999451
    endloop
  endfacet
  facet normal -1 0 0
    outer loop
      vertex -35.6681 -0.779669 -5
      vertex -35.6681 0.779669 -0.000999451
      vertex -35.6681 0.779669 -5
    endloop
  endfacet
  facet normal -1 -0 0
    outer loop
      vertex -35.6681 0.779669 -0.000999451
      vertex -35.6681 -0.779669 -5
      vertex -35.6681 -0.779669 -0.000999451
    endloop
  endfacet
  facet normal 0.499999 0.866026 -0
    outer loop
      vertex 26.7592 44.7868 -5
      vertex 25.4088 45.5665 -0.000999451
      vertex 26.7592 44.7868 -0.000999451
    endloop
  endfacet
  facet normal 0.499999 0.866026 0
    outer loop
      vertex 25.4088 45.5665 -0.000999451
      vertex 26.7592 44.7868 -5
      vertex 25.4088 45.5665 -5
    endloop
  endfacet
  facet normal -0.669131 -0.743145 0
    outer loop
      vertex -35.0338 -2.20419 -5
      vertex -33.875 -3.24759 -0.000999451
      vertex -35.0338 -2.20419 -0.000999451
    endloop
  endfacet
  facet normal -0.669131 -0.743145 -0
    outer loop
      vertex -33.875 -3.24759 -0.000999451
      vertex -35.0338 -2.20419 -5
      vertex -33.875 -3.24759 -5
    endloop
  endfacet
  facet normal -0.598289 -0.80128 0
    outer loop
      vertex -33.875 -3.24759 -5
      vertex -28 -7.63426 -0.000999451
      vertex -33.875 -3.24759 -0.000999451
    endloop
  endfacet
  facet normal -0.598289 -0.80128 -0
    outer loop
      vertex -28 -7.63426 -0.000999451
      vertex -33.875 -3.24759 -5
      vertex -28 -7.63426 -5
    endloop
  endfacet
  facet normal -0.598289 -0.80128 0
    outer loop
      vertex 11.9988 -37.5 -5
      vertex 22.375 -45.2476 -0.000999451
      vertex 11.9988 -37.5 -0.000999451
    endloop
  endfacet
  facet normal -0.598289 -0.80128 -0
    outer loop
      vertex 22.375 -45.2476 -0.000999451
      vertex 11.9988 -37.5 -5
      vertex 22.375 -45.2476 -5
    endloop
  endfacet
  facet normal -0.309017 -0.951057 0
    outer loop
      vertex 22.375 -45.2476 -5
      vertex 23.858 -45.7295 -0.000999451
      vertex 22.375 -45.2476 -0.000999451
    endloop
  endfacet
  facet normal -0.309017 -0.951057 -0
    outer loop
      vertex 23.858 -45.7295 -0.000999451
      vertex 22.375 -45.2476 -5
      vertex 23.858 -45.7295 -5
    endloop
  endfacet
  facet normal 0.10453 -0.994522 0
    outer loop
      vertex 23.858 -45.7295 -5
      vertex 25.4088 -45.5665 -0.000999451
      vertex 23.858 -45.7295 -0.000999451
    endloop
  endfacet
  facet normal 0.10453 -0.994522 0
    outer loop
      vertex 25.4088 -45.5665 -0.000999451
      vertex 23.858 -45.7295 -5
      vertex 25.4088 -45.5665 -5
    endloop
  endfacet
  facet normal -0.598289 0.80128 0
    outer loop
      vertex 22.375 45.2476 -5
      vertex 11.9988 37.5 -0.000999451
      vertex 22.375 45.2476 -0.000999451
    endloop
  endfacet
  facet normal -0.598289 0.80128 0
    outer loop
      vertex 11.9988 37.5 -0.000999451
      vertex 22.375 45.2476 -5
      vertex 11.9988 37.5 -5
    endloop
  endfacet
  facet normal -0.598289 0.80128 0
    outer loop
      vertex -28 7.63426 -5
      vertex -33.875 3.24759 -0.000999451
      vertex -28 7.63426 -0.000999451
    endloop
  endfacet
  facet normal -0.598289 0.80128 0
    outer loop
      vertex -33.875 3.24759 -0.000999451
      vertex -28 7.63426 -5
      vertex -33.875 3.24759 -5
    endloop
  endfacet
  facet normal -0.913546 0.406736 0
    outer loop
      vertex -35.6681 0.779669 -5
      vertex -35.0338 2.20419 -0.000999451
      vertex -35.0338 2.20419 -5
    endloop
  endfacet
  facet normal -0.913546 0.406736 0
    outer loop
      vertex -35.0338 2.20419 -0.000999451
      vertex -35.6681 0.779669 -5
      vertex -35.6681 0.779669 -0.000999451
    endloop
  endfacet
  facet normal -0.913546 -0.406736 0
    outer loop
      vertex -35.0338 -2.20419 -5
      vertex -35.6681 -0.779669 -0.000999451
      vertex -35.6681 -0.779669 -5
    endloop
  endfacet
  facet normal -0.913546 -0.406736 0
    outer loop
      vertex -35.6681 -0.779669 -0.000999451
      vertex -35.0338 -2.20419 -5
      vertex -35.0338 -2.20419 -0.000999451
    endloop
  endfacet
  facet normal 0 0 -1
    outer loop
      vertex -28 -7.63426 -5
      vertex -30.25 -6.12323e-16 -5
      vertex -28 7.63426 -5
    endloop
  endfacet
  facet normal 0 0 -1
    outer loop
      vertex -28 -7.63426 -5
      vertex -30.4013 -0.711788 -5
      vertex -30.25 -6.12323e-16 -5
    endloop
  endfacet
  facet normal 0 0 -1
    outer loop
      vertex -28 -7.63426 -5
      vertex -30.829 -1.3005 -5
      vertex -30.4013 -0.711788 -5
    endloop
  endfacet
  facet normal 0 0 -1
    outer loop
      vertex -28 -7.63426 -5
      vertex -31.4592 -1.66435 -5
      vertex -30.829 -1.3005 -5
    endloop
  endfacet
  facet normal 0 0 -1
    outer loop
      vertex -33.875 -3.24759 -5
      vertex -31.4592 -1.66435 -5
      vertex -28 -7.63426 -5
    endloop
  endfacet
  facet normal 0 0 -1
    outer loop
      vertex -31.4592 -1.66435 -5
      vertex -33.875 -3.24759 -5
      vertex -32.1829 -1.74041 -5
    endloop
  endfacet
  facet normal -0 0 -1
    outer loop
      vertex -32.1829 -1.74041 -5
      vertex -33.875 -3.24759 -5
      vertex -32.875 -1.51554 -5
    endloop
  endfacet
  facet normal -0 0 -1
    outer loop
      vertex -33.4158 -1.02862 -5
      vertex -35.0338 -2.20419 -5
      vertex -33.7118 -0.363845 -5
    endloop
  endfacet
  facet normal 0 0 -1
    outer loop
      vertex -35.0338 -2.20419 -5
      vertex -33.4158 -1.02862 -5
      vertex -33.875 -3.24759 -5
    endloop
  endfacet
  facet normal -0 0 -1
    outer loop
      vertex -32.875 -1.51554 -5
      vertex -33.875 -3.24759 -5
      vertex -33.4158 -1.02862 -5
    endloop
  endfacet
  facet normal 0 0 -1
    outer loop
      vertex -30.4013 0.711788 -5
      vertex -28 7.63426 -5
      vertex -30.25 -6.12323e-16 -5
    endloop
  endfacet
  facet normal 0 0 -1
    outer loop
      vertex -30.829 1.3005 -5
      vertex -28 7.63426 -5
      vertex -30.4013 0.711788 -5
    endloop
  endfacet
  facet normal 0 0 -1
    outer loop
      vertex -31.4592 1.66435 -5
      vertex -28 7.63426 -5
      vertex -30.829 1.3005 -5
    endloop
  endfacet
  facet normal 0 0 -1
    outer loop
      vertex -33.875 3.24759 -5
      vertex -31.4592 1.66435 -5
      vertex -32.1829 1.74041 -5
    endloop
  endfacet
  facet normal 0 0 -1
    outer loop
      vertex -33.875 3.24759 -5
      vertex -32.1829 1.74041 -5
      vertex -32.875 1.51554 -5
    endloop
  endfacet
  facet normal 0 0 -1
    outer loop
      vertex -33.875 3.24759 -5
      vertex -32.875 1.51554 -5
      vertex -33.4158 1.02862 -5
    endloop
  endfacet
  facet normal 0 0 -1
    outer loop
      vertex -31.4592 1.66435 -5
      vertex -33.875 3.24759 -5
      vertex -28 7.63426 -5
    endloop
  endfacet
  facet normal 0 0 -1
    outer loop
      vertex -35.0338 2.20419 -5
      vertex -33.4158 1.02862 -5
      vertex -33.7118 0.363845 -5
    endloop
  endfacet
  facet normal 0 0 -1
    outer loop
      vertex -35.6681 -0.779669 -5
      vertex -33.7118 -0.363845 -5
      vertex -35.0338 -2.20419 -5
    endloop
  endfacet
  facet normal -0 0 -1
    outer loop
      vertex -33.7118 -0.363845 -5
      vertex -35.6681 -0.779669 -5
      vertex -33.7118 0.363845 -5
    endloop
  endfacet
  facet normal 0 0 -1
    outer loop
      vertex -33.4158 1.02862 -5
      vertex -35.0338 2.20419 -5
      vertex -33.875 3.24759 -5
    endloop
  endfacet
  facet normal 0 0 -1
    outer loop
      vertex -35.6681 0.779669 -5
      vertex -33.7118 0.363845 -5
      vertex -35.6681 -0.779669 -5
    endloop
  endfacet
  facet normal 0 0 -1
    outer loop
      vertex -33.7118 0.363845 -5
      vertex -35.6681 0.779669 -5
      vertex -35.0338 2.20419 -5
    endloop
  endfacet
  facet normal 0 0 -1
    outer loop
      vertex 27.6758 -43.5253 -5
      vertex 25.8487 -42.7118 -5
      vertex 26 -42 -5
    endloop
  endfacet
  facet normal 0 0 -1
    outer loop
      vertex 26.7592 -44.7868 -5
      vertex 25.421 -43.3005 -5
      vertex 25.8487 -42.7118 -5
    endloop
  endfacet
  facet normal 0 0 -1
    outer loop
      vertex 25.4088 -45.5665 -5
      vertex 25.421 -43.3005 -5
      vertex 26.7592 -44.7868 -5
    endloop
  endfacet
  facet normal 0 0 -1
    outer loop
      vertex 25.4088 -45.5665 -5
      vertex 24.7908 -43.6643 -5
      vertex 25.421 -43.3005 -5
    endloop
  endfacet
  facet normal 0 0 -1
    outer loop
      vertex 25.4088 -45.5665 -5
      vertex 24.0671 -43.7404 -5
      vertex 24.7908 -43.6643 -5
    endloop
  endfacet
  facet normal 0 0 -1
    outer loop
      vertex 23.858 -45.7295 -5
      vertex 24.0671 -43.7404 -5
      vertex 25.4088 -45.5665 -5
    endloop
  endfacet
  facet normal 0 0 -1
    outer loop
      vertex 23.858 -45.7295 -5
      vertex 23.375 -43.5155 -5
      vertex 24.0671 -43.7404 -5
    endloop
  endfacet
  facet normal 0 0 -1
    outer loop
      vertex 22.375 -45.2476 -5
      vertex 23.375 -43.5155 -5
      vertex 23.858 -45.7295 -5
    endloop
  endfacet
  facet normal -0 0 -1
    outer loop
      vertex 23.375 -43.5155 -5
      vertex 22.375 -45.2476 -5
      vertex 22.8342 -43.0286 -5
    endloop
  endfacet
  facet normal 0 0 -1
    outer loop
      vertex 11.9988 -37.5 -5
      vertex 22.5382 -42.3638 -5
      vertex 22.375 -45.2476 -5
    endloop
  endfacet
  facet normal -0 0 -1
    outer loop
      vertex 22.8342 -43.0286 -5
      vertex 22.375 -45.2476 -5
      vertex 22.5382 -42.3638 -5
    endloop
  endfacet
  facet normal 0 0 -1
    outer loop
      vertex 26 -42 -5
      vertex 28 -42 -5
      vertex 27.6758 -43.5253 -5
    endloop
  endfacet
  facet normal 0 0 -1
    outer loop
      vertex 25.8487 -42.7118 -5
      vertex 27.6758 -43.5253 -5
      vertex 26.7592 -44.7868 -5
    endloop
  endfacet
  facet normal 0 0 -1
    outer loop
      vertex 28 -42 -5
      vertex 26 -42 -5
      vertex 25.8487 -41.2882 -5
    endloop
  endfacet
  facet normal 0 0 -1
    outer loop
      vertex 28 -42 -5
      vertex 25.8487 -41.2882 -5
      vertex 28 -37.5 -5
    endloop
  endfacet
  facet normal 0 0 -1
    outer loop
      vertex 25.421 -40.6995 -5
      vertex 28 -37.5 -5
      vertex 25.8487 -41.2882 -5
    endloop
  endfacet
  facet normal 0 0 -1
    outer loop
      vertex 24.7908 -40.3357 -5
      vertex 28 -37.5 -5
      vertex 25.421 -40.6995 -5
    endloop
  endfacet
  facet normal 0 0 -1
    outer loop
      vertex 24.0671 -40.2596 -5
      vertex 28 -37.5 -5
      vertex 24.7908 -40.3357 -5
    endloop
  endfacet
  facet normal 0 0 -1
    outer loop
      vertex 23.375 -40.4845 -5
      vertex 28 -37.5 -5
      vertex 24.0671 -40.2596 -5
    endloop
  endfacet
  facet normal 0 0 -1
    outer loop
      vertex 23.375 -40.4845 -5
      vertex 11.9988 -37.5 -5
      vertex 28 -37.5 -5
    endloop
  endfacet
  facet normal 0 0 -1
    outer loop
      vertex 22.8342 -40.9714 -5
      vertex 11.9988 -37.5 -5
      vertex 23.375 -40.4845 -5
    endloop
  endfacet
  facet normal 0 0 -1
    outer loop
      vertex 22.5382 -41.6362 -5
      vertex 11.9988 -37.5 -5
      vertex 22.8342 -40.9714 -5
    endloop
  endfacet
  facet normal 0 0 -1
    outer loop
      vertex 22.5382 -42.3638 -5
      vertex 11.9988 -37.5 -5
      vertex 22.5382 -41.6362 -5
    endloop
  endfacet
  facet normal 0 0 -1
    outer loop
      vertex 25.8487 41.2882 -5
      vertex 28 42 -5
      vertex 28 37.5 -5
    endloop
  endfacet
  facet normal 0 -0 -1
    outer loop
      vertex 26 42 -5
      vertex 28 42 -5
      vertex 25.8487 41.2882 -5
    endloop
  endfacet
  facet normal 0 0 -1
    outer loop
      vertex 25.8487 42.7118 -5
      vertex 27.6758 43.5253 -5
      vertex 26 42 -5
    endloop
  endfacet
  facet normal 0 0 -1
    outer loop
      vertex 28 42 -5
      vertex 26 42 -5
      vertex 27.6758 43.5253 -5
    endloop
  endfacet
  facet normal 0 0 -1
    outer loop
      vertex 28 37.5 -5
      vertex 25.421 40.6995 -5
      vertex 25.8487 41.2882 -5
    endloop
  endfacet
  facet normal 0 0 -1
    outer loop
      vertex 28 37.5 -5
      vertex 24.7908 40.3357 -5
      vertex 25.421 40.6995 -5
    endloop
  endfacet
  facet normal 0 0 -1
    outer loop
      vertex 28 37.5 -5
      vertex 24.0671 40.2596 -5
      vertex 24.7908 40.3357 -5
    endloop
  endfacet
  facet normal 0 0 -1
    outer loop
      vertex 28 37.5 -5
      vertex 23.375 40.4845 -5
      vertex 24.0671 40.2596 -5
    endloop
  endfacet
  facet normal 0 0 -1
    outer loop
      vertex 11.9988 37.5 -5
      vertex 22.5382 42.3638 -5
      vertex 22.5382 41.6362 -5
    endloop
  endfacet
  facet normal -0 0 -1
    outer loop
      vertex 22.5382 42.3638 -5
      vertex 11.9988 37.5 -5
      vertex 22.375 45.2476 -5
    endloop
  endfacet
  facet normal -0 0 -1
    outer loop
      vertex 22.8342 40.9714 -5
      vertex 11.9988 37.5 -5
      vertex 22.5382 41.6362 -5
    endloop
  endfacet
  facet normal -0 0 -1
    outer loop
      vertex 23.375 40.4845 -5
      vertex 11.9988 37.5 -5
      vertex 22.8342 40.9714 -5
    endloop
  endfacet
  facet normal 0 0 -1
    outer loop
      vertex 11.9988 37.5 -5
      vertex 23.375 40.4845 -5
      vertex 28 37.5 -5
    endloop
  endfacet
  facet normal -0 0 -1
    outer loop
      vertex 27.6758 43.5253 -5
      vertex 25.8487 42.7118 -5
      vertex 26.7592 44.7868 -5
    endloop
  endfacet
  facet normal 0 0 -1
    outer loop
      vertex 25.421 43.3005 -5
      vertex 26.7592 44.7868 -5
      vertex 25.8487 42.7118 -5
    endloop
  endfacet
  facet normal 0 0 -1
    outer loop
      vertex 25.421 43.3005 -5
      vertex 25.4088 45.5665 -5
      vertex 26.7592 44.7868 -5
    endloop
  endfacet
  facet normal 0 0 -1
    outer loop
      vertex 24.7908 43.6643 -5
      vertex 25.4088 45.5665 -5
      vertex 25.421 43.3005 -5
    endloop
  endfacet
  facet normal 0 0 -1
    outer loop
      vertex 24.0671 43.7404 -5
      vertex 25.4088 45.5665 -5
      vertex 24.7908 43.6643 -5
    endloop
  endfacet
  facet normal 0 0 -1
    outer loop
      vertex 24.0671 43.7404 -5
      vertex 23.858 45.7295 -5
      vertex 25.4088 45.5665 -5
    endloop
  endfacet
  facet normal 0 0 -1
    outer loop
      vertex 23.375 43.5155 -5
      vertex 23.858 45.7295 -5
      vertex 24.0671 43.7404 -5
    endloop
  endfacet
  facet normal 0 0 -1
    outer loop
      vertex 22.375 45.2476 -5
      vertex 23.375 43.5155 -5
      vertex 22.8342 43.0286 -5
    endloop
  endfacet
  facet normal 0 0 -1
    outer loop
      vertex 22.375 45.2476 -5
      vertex 22.8342 43.0286 -5
      vertex 22.5382 42.3638 -5
    endloop
  endfacet
  facet normal 0 0 -1
    outer loop
      vertex 23.375 43.5155 -5
      vertex 22.375 45.2476 -5
      vertex 23.858 45.7295 -5
    endloop
  endfacet
  facet normal 0.809017 0.587785 0
    outer loop
      vertex 27.6758 43.5253 -0.000999451
      vertex 26.7592 44.7868 -5
      vertex 26.7592 44.7868 -0.000999451
    endloop
  endfacet
  facet normal 0.809017 0.587785 0
    outer loop
      vertex 26.7592 44.7868 -5
      vertex 27.6758 43.5253 -0.000999451
      vertex 27.6758 43.5253 -5
    endloop
  endfacet
  facet normal 0.978147 0.207912 0
    outer loop
      vertex 28 42 -0.000999451
      vertex 27.6758 43.5253 -5
      vertex 27.6758 43.5253 -0.000999451
    endloop
  endfacet
  facet normal 0.978147 0.207912 0
    outer loop
      vertex 27.6758 43.5253 -5
      vertex 28 42 -0.000999451
      vertex 28 42 -5
    endloop
  endfacet
  facet normal -0.309019 0.951056 0
    outer loop
      vertex 23.858 45.7295 -5
      vertex 22.375 45.2476 -0.000999451
      vertex 23.858 45.7295 -0.000999451
    endloop
  endfacet
  facet normal -0.309019 0.951056 0
    outer loop
      vertex 22.375 45.2476 -0.000999451
      vertex 23.858 45.7295 -5
      vertex 22.375 45.2476 -5
    endloop
  endfacet
  facet normal 0.10453 0.994522 -0
    outer loop
      vertex 25.4088 45.5665 -5
      vertex 23.858 45.7295 -0.000999451
      vertex 25.4088 45.5665 -0.000999451
    endloop
  endfacet
  facet normal 0.10453 0.994522 0
    outer loop
      vertex 23.858 45.7295 -0.000999451
      vertex 25.4088 45.5665 -5
      vertex 23.858 45.7295 -5
    endloop
  endfacet
  facet normal -0.669131 0.743145 0
    outer loop
      vertex -33.875 3.24759 -5
      vertex -35.0338 2.20419 -0.000999451
      vertex -33.875 3.24759 -0.000999451
    endloop
  endfacet
  facet normal -0.669131 0.743145 0
    outer loop
      vertex -35.0338 2.20419 -0.000999451
      vertex -33.875 3.24759 -5
      vertex -35.0338 2.20419 -5
    endloop
  endfacet
  facet normal 0.499999 -0.866026 0
    outer loop
      vertex 25.4088 -45.5665 -5
      vertex 26.7592 -44.7868 -0.000999451
      vertex 25.4088 -45.5665 -0.000999451
    endloop
  endfacet
  facet normal 0.499999 -0.866026 0
    outer loop
      vertex 26.7592 -44.7868 -0.000999451
      vertex 25.4088 -45.5665 -5
      vertex 26.7592 -44.7868 -5
    endloop
  endfacet
  facet normal 0.809017 -0.587785 0
    outer loop
      vertex 26.7592 -44.7868 -0.000999451
      vertex 27.6758 -43.5253 -5
      vertex 27.6758 -43.5253 -0.000999451
    endloop
  endfacet
  facet normal 0.809017 -0.587785 0
    outer loop
      vertex 27.6758 -43.5253 -5
      vertex 26.7592 -44.7868 -0.000999451
      vertex 26.7592 -44.7868 -5
    endloop
  endfacet
  facet normal 0.978147 -0.207912 0
    outer loop
      vertex 27.6758 -43.5253 -0.000999451
      vertex 28 -42 -5
      vertex 28 -42 -0.000999451
    endloop
  endfacet
  facet normal 0.978147 -0.207912 0
    outer loop
      vertex 28 -42 -5
      vertex 27.6758 -43.5253 -0.000999451
      vertex 27.6758 -43.5253 -5
    endloop
  endfacet
  facet normal -0.978148 0.207911 0
    outer loop
      vertex 25.8487 -42.7118 -5
      vertex 26 -42 -0.000999451
      vertex 26 -42 -5
    endloop
  endfacet
  facet normal -0.978148 0.207911 0
    outer loop
      vertex 26 -42 -0.000999451
      vertex 25.8487 -42.7118 -5
      vertex 25.8487 -42.7118 -0.000999451
    endloop
  endfacet
  facet normal 1 -0 0
    outer loop
      vertex 22.5382 -42.3638 -0.000999451
      vertex 22.5382 -41.6362 -5
      vertex 22.5382 -41.6362 -0.000999451
    endloop
  endfacet
  facet normal 1 0 0
    outer loop
      vertex 22.5382 -41.6362 -5
      vertex 22.5382 -42.3638 -0.000999451
      vertex 22.5382 -42.3638 -5
    endloop
  endfacet
  facet normal -0.104529 0.994522 0
    outer loop
      vertex 24.7908 -43.6643 -5
      vertex 24.0671 -43.7404 -0.000999451
      vertex 24.7908 -43.6643 -0.000999451
    endloop
  endfacet
  facet normal -0.104529 0.994522 0
    outer loop
      vertex 24.0671 -43.7404 -0.000999451
      vertex 24.7908 -43.6643 -5
      vertex 24.0671 -43.7404 -5
    endloop
  endfacet
  facet normal -0.809017 0.587786 0
    outer loop
      vertex 25.421 -43.3005 -5
      vertex 25.8487 -42.7118 -0.000999451
      vertex 25.8487 -42.7118 -5
    endloop
  endfacet
  facet normal -0.809017 0.587786 0
    outer loop
      vertex 25.8487 -42.7118 -0.000999451
      vertex 25.421 -43.3005 -5
      vertex 25.421 -43.3005 -0.000999451
    endloop
  endfacet
  facet normal -0.104529 -0.994522 0
    outer loop
      vertex 24.0671 -40.2596 -5
      vertex 24.7908 -40.3357 -0.000999451
      vertex 24.0671 -40.2596 -0.000999451
    endloop
  endfacet
  facet normal -0.104529 -0.994522 -0
    outer loop
      vertex 24.7908 -40.3357 -0.000999451
      vertex 24.0671 -40.2596 -5
      vertex 24.7908 -40.3357 -5
    endloop
  endfacet
  facet normal -0.5 -0.866025 0
    outer loop
      vertex 24.7908 -40.3357 -5
      vertex 25.421 -40.6995 -0.000999451
      vertex 24.7908 -40.3357 -0.000999451
    endloop
  endfacet
  facet normal -0.5 -0.866025 -0
    outer loop
      vertex 25.421 -40.6995 -0.000999451
      vertex 24.7908 -40.3357 -5
      vertex 25.421 -40.6995 -5
    endloop
  endfacet
  facet normal -0.5 0.866025 0
    outer loop
      vertex 25.421 -43.3005 -5
      vertex 24.7908 -43.6643 -0.000999451
      vertex 25.421 -43.3005 -0.000999451
    endloop
  endfacet
  facet normal -0.5 0.866025 0
    outer loop
      vertex 24.7908 -43.6643 -0.000999451
      vertex 25.421 -43.3005 -5
      vertex 24.7908 -43.6643 -5
    endloop
  endfacet
  facet normal 0.66913 0.743145 -0
    outer loop
      vertex 23.375 -43.5155 -5
      vertex 22.8342 -43.0286 -0.000999451
      vertex 23.375 -43.5155 -0.000999451
    endloop
  endfacet
  facet normal 0.66913 0.743145 0
    outer loop
      vertex 22.8342 -43.0286 -0.000999451
      vertex 23.375 -43.5155 -5
      vertex 22.8342 -43.0286 -5
    endloop
  endfacet
  facet normal 0.913546 0.406736 0
    outer loop
      vertex 22.8342 -43.0286 -0.000999451
      vertex 22.5382 -42.3638 -5
      vertex 22.5382 -42.3638 -0.000999451
    endloop
  endfacet
  facet normal 0.913546 0.406736 0
    outer loop
      vertex 22.5382 -42.3638 -5
      vertex 22.8342 -43.0286 -0.000999451
      vertex 22.8342 -43.0286 -5
    endloop
  endfacet
  facet normal 0.309017 0.951056 -0
    outer loop
      vertex 24.0671 -43.7404 -5
      vertex 23.375 -43.5155 -0.000999451
      vertex 24.0671 -43.7404 -0.000999451
    endloop
  endfacet
  facet normal 0.309017 0.951056 0
    outer loop
      vertex 23.375 -43.5155 -0.000999451
      vertex 24.0671 -43.7404 -5
      vertex 23.375 -43.5155 -5
    endloop
  endfacet
  facet normal 0.309017 -0.951056 0
    outer loop
      vertex 23.375 -40.4845 -5
      vertex 24.0671 -40.2596 -0.000999451
      vertex 23.375 -40.4845 -0.000999451
    endloop
  endfacet
  facet normal 0.309017 -0.951056 0
    outer loop
      vertex 24.0671 -40.2596 -0.000999451
      vertex 23.375 -40.4845 -5
      vertex 24.0671 -40.2596 -5
    endloop
  endfacet
  facet normal 0.913546 -0.406736 0
    outer loop
      vertex 22.5382 -41.6362 -0.000999451
      vertex 22.8342 -40.9714 -5
      vertex 22.8342 -40.9714 -0.000999451
    endloop
  endfacet
  facet normal 0.913546 -0.406736 0
    outer loop
      vertex 22.8342 -40.9714 -5
      vertex 22.5382 -41.6362 -0.000999451
      vertex 22.5382 -41.6362 -5
    endloop
  endfacet
  facet normal -0.809017 -0.587786 0
    outer loop
      vertex 25.8487 -41.2882 -5
      vertex 25.421 -40.6995 -0.000999451
      vertex 25.421 -40.6995 -5
    endloop
  endfacet
  facet normal -0.809017 -0.587786 0
    outer loop
      vertex 25.421 -40.6995 -0.000999451
      vertex 25.8487 -41.2882 -5
      vertex 25.8487 -41.2882 -0.000999451
    endloop
  endfacet
  facet normal 0.66913 -0.743145 0
    outer loop
      vertex 22.8342 -40.9714 -5
      vertex 23.375 -40.4845 -0.000999451
      vertex 22.8342 -40.9714 -0.000999451
    endloop
  endfacet
  facet normal 0.66913 -0.743145 0
    outer loop
      vertex 23.375 -40.4845 -0.000999451
      vertex 22.8342 -40.9714 -5
      vertex 23.375 -40.4845 -5
    endloop
  endfacet
  facet normal -0.978148 -0.207911 0
    outer loop
      vertex 26 -42 -5
      vertex 25.8487 -41.2882 -0.000999451
      vertex 25.8487 -41.2882 -5
    endloop
  endfacet
  facet normal -0.978148 -0.207911 0
    outer loop
      vertex 25.8487 -41.2882 -0.000999451
      vertex 26 -42 -5
      vertex 26 -42 -0.000999451
    endloop
  endfacet
  facet normal -0.978148 0.207911 0
    outer loop
      vertex 25.8487 41.2882 -5
      vertex 26 42 -0.000999451
      vertex 26 42 -5
    endloop
  endfacet
  facet normal -0.978148 0.207911 0
    outer loop
      vertex 26 42 -0.000999451
      vertex 25.8487 41.2882 -5
      vertex 25.8487 41.2882 -0.000999451
    endloop
  endfacet
  facet normal 1 -0 0
    outer loop
      vertex 22.5382 41.6362 -0.000999451
      vertex 22.5382 42.3638 -5
      vertex 22.5382 42.3638 -0.000999451
    endloop
  endfacet
  facet normal 1 0 0
    outer loop
      vertex 22.5382 42.3638 -5
      vertex 22.5382 41.6362 -0.000999451
      vertex 22.5382 41.6362 -5
    endloop
  endfacet
  facet normal -0.104529 0.994522 0
    outer loop
      vertex 24.7908 40.3357 -5
      vertex 24.0671 40.2596 -0.000999451
      vertex 24.7908 40.3357 -0.000999451
    endloop
  endfacet
  facet normal -0.104529 0.994522 0
    outer loop
      vertex 24.0671 40.2596 -0.000999451
      vertex 24.7908 40.3357 -5
      vertex 24.0671 40.2596 -5
    endloop
  endfacet
  facet normal -0.809017 0.587786 0
    outer loop
      vertex 25.421 40.6995 -5
      vertex 25.8487 41.2882 -0.000999451
      vertex 25.8487 41.2882 -5
    endloop
  endfacet
  facet normal -0.809017 0.587786 0
    outer loop
      vertex 25.8487 41.2882 -0.000999451
      vertex 25.421 40.6995 -5
      vertex 25.421 40.6995 -0.000999451
    endloop
  endfacet
  facet normal -0.104529 -0.994522 0
    outer loop
      vertex 24.0671 43.7404 -5
      vertex 24.7908 43.6643 -0.000999451
      vertex 24.0671 43.7404 -0.000999451
    endloop
  endfacet
  facet normal -0.104529 -0.994522 -0
    outer loop
      vertex 24.7908 43.6643 -0.000999451
      vertex 24.0671 43.7404 -5
      vertex 24.7908 43.6643 -5
    endloop
  endfacet
  facet normal -0.5 -0.866025 0
    outer loop
      vertex 24.7908 43.6643 -5
      vertex 25.421 43.3005 -0.000999451
      vertex 24.7908 43.6643 -0.000999451
    endloop
  endfacet
  facet normal -0.5 -0.866025 -0
    outer loop
      vertex 25.421 43.3005 -0.000999451
      vertex 24.7908 43.6643 -5
      vertex 25.421 43.3005 -5
    endloop
  endfacet
  facet normal -0.5 0.866025 0
    outer loop
      vertex 25.421 40.6995 -5
      vertex 24.7908 40.3357 -0.000999451
      vertex 25.421 40.6995 -0.000999451
    endloop
  endfacet
  facet normal -0.5 0.866025 0
    outer loop
      vertex 24.7908 40.3357 -0.000999451
      vertex 25.421 40.6995 -5
      vertex 24.7908 40.3357 -5
    endloop
  endfacet
  facet normal 0.66913 0.743145 -0
    outer loop
      vertex 23.375 40.4845 -5
      vertex 22.8342 40.9714 -0.000999451
      vertex 23.375 40.4845 -0.000999451
    endloop
  endfacet
  facet normal 0.66913 0.743145 0
    outer loop
      vertex 22.8342 40.9714 -0.000999451
      vertex 23.375 40.4845 -5
      vertex 22.8342 40.9714 -5
    endloop
  endfacet
  facet normal 0.913546 0.406736 0
    outer loop
      vertex 22.8342 40.9714 -0.000999451
      vertex 22.5382 41.6362 -5
      vertex 22.5382 41.6362 -0.000999451
    endloop
  endfacet
  facet normal 0.913546 0.406736 0
    outer loop
      vertex 22.5382 41.6362 -5
      vertex 22.8342 40.9714 -0.000999451
      vertex 22.8342 40.9714 -5
    endloop
  endfacet
  facet normal 0.309017 0.951056 -0
    outer loop
      vertex 24.0671 40.2596 -5
      vertex 23.375 40.4845 -0.000999451
      vertex 24.0671 40.2596 -0.000999451
    endloop
  endfacet
  facet normal 0.309017 0.951056 0
    outer loop
      vertex 23.375 40.4845 -0.000999451
      vertex 24.0671 40.2596 -5
      vertex 23.375 40.4845 -5
    endloop
  endfacet
  facet normal -0.978148 -0.207911 0
    outer loop
      vertex 26 42 -5
      vertex 25.8487 42.7118 -0.000999451
      vertex 25.8487 42.7118 -5
    endloop
  endfacet
  facet normal -0.978148 -0.207911 0
    outer loop
      vertex 25.8487 42.7118 -0.000999451
      vertex 26 42 -5
      vertex 26 42 -0.000999451
    endloop
  endfacet
  facet normal 0.309017 -0.951056 0
    outer loop
      vertex 23.375 43.5155 -5
      vertex 24.0671 43.7404 -0.000999451
      vertex 23.375 43.5155 -0.000999451
    endloop
  endfacet
  facet normal 0.309017 -0.951056 0
    outer loop
      vertex 24.0671 43.7404 -0.000999451
      vertex 23.375 43.5155 -5
      vertex 24.0671 43.7404 -5
    endloop
  endfacet
  facet normal 0.913545 -0.406738 0
    outer loop
      vertex 22.5382 42.3638 -0.000999451
      vertex 22.8342 43.0286 -5
      vertex 22.8342 43.0286 -0.000999451
    endloop
  endfacet
  facet normal 0.913545 -0.406738 0
    outer loop
      vertex 22.8342 43.0286 -5
      vertex 22.5382 42.3638 -0.000999451
      vertex 22.5382 42.3638 -5
    endloop
  endfacet
  facet normal -0.809017 -0.587786 0
    outer loop
      vertex 25.8487 42.7118 -5
      vertex 25.421 43.3005 -0.000999451
      vertex 25.421 43.3005 -5
    endloop
  endfacet
  facet normal -0.809017 -0.587786 0
    outer loop
      vertex 25.421 43.3005 -0.000999451
      vertex 25.8487 42.7118 -5
      vertex 25.8487 42.7118 -0.000999451
    endloop
  endfacet
  facet normal 0.669133 -0.743142 0
    outer loop
      vertex 22.8342 43.0286 -5
      vertex 23.375 43.5155 -0.000999451
      vertex 22.8342 43.0286 -0.000999451
    endloop
  endfacet
  facet normal 0.669133 -0.743142 0
    outer loop
      vertex 23.375 43.5155 -0.000999451
      vertex 22.8342 43.0286 -5
      vertex 23.375 43.5155 -5
    endloop
  endfacet
  facet normal -0.978148 0.207911 -2.67048e-17
    outer loop
      vertex -30.4013 -0.711788 -5
      vertex -30.25 -1.22397e-19 -0.000999451
      vertex -30.25 -6.12323e-16 -5
    endloop
  endfacet
  facet normal -0.978148 0.207911 0
    outer loop
      vertex -30.25 -1.22397e-19 -0.000999451
      vertex -30.4013 -0.711788 -5
      vertex -30.4013 -0.711788 -0.000999451
    endloop
  endfacet
  facet normal 1 -0 0
    outer loop
      vertex -33.7118 -0.363845 -0.000999451
      vertex -33.7118 0.363845 -5
      vertex -33.7118 0.363845 -0.000999451
    endloop
  endfacet
  facet normal 1 0 0
    outer loop
      vertex -33.7118 0.363845 -5
      vertex -33.7118 -0.363845 -0.000999451
      vertex -33.7118 -0.363845 -5
    endloop
  endfacet
  facet normal -0.104528 0.994522 0
    outer loop
      vertex -31.4592 -1.66435 -5
      vertex -32.1829 -1.74041 -0.000999451
      vertex -31.4592 -1.66435 -0.000999451
    endloop
  endfacet
  facet normal -0.104528 0.994522 0
    outer loop
      vertex -32.1829 -1.74041 -0.000999451
      vertex -31.4592 -1.66435 -5
      vertex -32.1829 -1.74041 -5
    endloop
  endfacet
  facet normal -0.809017 0.587786 0
    outer loop
      vertex -30.829 -1.3005 -5
      vertex -30.4013 -0.711788 -0.000999451
      vertex -30.4013 -0.711788 -5
    endloop
  endfacet
  facet normal -0.809017 0.587786 0
    outer loop
      vertex -30.4013 -0.711788 -0.000999451
      vertex -30.829 -1.3005 -5
      vertex -30.829 -1.3005 -0.000999451
    endloop
  endfacet
  facet normal -0.809017 -0.587786 0
    outer loop
      vertex -30.4013 0.711788 -5
      vertex -30.829 1.3005 -0.000999451
      vertex -30.829 1.3005 -5
    endloop
  endfacet
  facet normal -0.809017 -0.587786 0
    outer loop
      vertex -30.829 1.3005 -0.000999451
      vertex -30.4013 0.711788 -5
      vertex -30.4013 0.711788 -0.000999451
    endloop
  endfacet
  facet normal -0.5 -0.866025 0
    outer loop
      vertex -31.4592 1.66435 -5
      vertex -30.829 1.3005 -0.000999451
      vertex -31.4592 1.66435 -0.000999451
    endloop
  endfacet
  facet normal -0.5 -0.866025 -0
    outer loop
      vertex -30.829 1.3005 -0.000999451
      vertex -31.4592 1.66435 -5
      vertex -30.829 1.3005 -5
    endloop
  endfacet
  facet normal -0.104528 -0.994522 0
    outer loop
      vertex -32.1829 1.74041 -5
      vertex -31.4592 1.66435 -0.000999451
      vertex -32.1829 1.74041 -0.000999451
    endloop
  endfacet
  facet normal -0.104528 -0.994522 -0
    outer loop
      vertex -31.4592 1.66435 -0.000999451
      vertex -32.1829 1.74041 -5
      vertex -31.4592 1.66435 -5
    endloop
  endfacet
  facet normal -0.5 0.866025 0
    outer loop
      vertex -30.829 -1.3005 -5
      vertex -31.4592 -1.66435 -0.000999451
      vertex -30.829 -1.3005 -0.000999451
    endloop
  endfacet
  facet normal -0.5 0.866025 0
    outer loop
      vertex -31.4592 -1.66435 -0.000999451
      vertex -30.829 -1.3005 -5
      vertex -31.4592 -1.66435 -5
    endloop
  endfacet
  facet normal 0.309016 0.951057 -0
    outer loop
      vertex -32.1829 -1.74041 -5
      vertex -32.875 -1.51554 -0.000999451
      vertex -32.1829 -1.74041 -0.000999451
    endloop
  endfacet
  facet normal 0.309016 0.951057 0
    outer loop
      vertex -32.875 -1.51554 -0.000999451
      vertex -32.1829 -1.74041 -5
      vertex -32.875 -1.51554 -5
    endloop
  endfacet
  facet normal 0.913545 0.406737 0
    outer loop
      vertex -33.4158 -1.02862 -0.000999451
      vertex -33.7118 -0.363845 -5
      vertex -33.7118 -0.363845 -0.000999451
    endloop
  endfacet
  facet normal 0.913545 0.406737 0
    outer loop
      vertex -33.7118 -0.363845 -5
      vertex -33.4158 -1.02862 -0.000999451
      vertex -33.4158 -1.02862 -5
    endloop
  endfacet
  facet normal 0.669131 0.743144 -0
    outer loop
      vertex -32.875 -1.51554 -5
      vertex -33.4158 -1.02862 -0.000999451
      vertex -32.875 -1.51554 -0.000999451
    endloop
  endfacet
  facet normal 0.669131 0.743144 0
    outer loop
      vertex -33.4158 -1.02862 -0.000999451
      vertex -32.875 -1.51554 -5
      vertex -33.4158 -1.02862 -5
    endloop
  endfacet
  facet normal 0.913545 -0.406737 0
    outer loop
      vertex -33.7118 0.363845 -0.000999451
      vertex -33.4158 1.02862 -5
      vertex -33.4158 1.02862 -0.000999451
    endloop
  endfacet
  facet normal 0.913545 -0.406737 0
    outer loop
      vertex -33.4158 1.02862 -5
      vertex -33.7118 0.363845 -0.000999451
      vertex -33.7118 0.363845 -5
    endloop
  endfacet
  facet normal 0.309016 -0.951057 0
    outer loop
      vertex -32.875 1.51554 -5
      vertex -32.1829 1.74041 -0.000999451
      vertex -32.875 1.51554 -0.000999451
    endloop
  endfacet
  facet normal 0.309016 -0.951057 0
    outer loop
      vertex -32.1829 1.74041 -0.000999451
      vertex -32.875 1.51554 -5
      vertex -32.1829 1.74041 -5
    endloop
  endfacet
  facet normal 0.669131 -0.743144 0
    outer loop
      vertex -33.4158 1.02862 -5
      vertex -32.875 1.51554 -0.000999451
      vertex -33.4158 1.02862 -0.000999451
    endloop
  endfacet
  facet normal 0.669131 -0.743144 0
    outer loop
      vertex -32.875 1.51554 -0.000999451
      vertex -33.4158 1.02862 -5
      vertex -32.875 1.51554 -5
    endloop
  endfacet
  facet normal -0.978148 -0.207911 0
    outer loop
      vertex -30.4013 0.711788 -5
      vertex -30.25 -1.22397e-19 -0.000999451
      vertex -30.4013 0.711788 -0.000999451
    endloop
  endfacet
  facet normal -0.978148 -0.207911 2.54618e-17
    outer loop
      vertex -30.25 -1.22397e-19 -0.000999451
      vertex -30.4013 0.711788 -5
      vertex -30.25 -6.12323e-16 -5
    endloop
  endfacet
  facet normal 1 -0 0
    outer loop
      vertex -26 -35.5 -0.000999451
      vertex -26 10.5 -20
      vertex -26 10.5 -0.000999451
    endloop
  endfacet
  facet normal 1 0 0
    outer loop
      vertex -26 10.5 -20
      vertex -26 -35.5 -0.000999451
      vertex -26 -35.5 -20
    endloop
  endfacet
  facet normal 0 0 1
    outer loop
      vertex 26 35.5 -20
      vertex 19 25 -20
      vertex 26 25 -20
    endloop
  endfacet
  facet normal 0 0 1
    outer loop
      vertex 3 10.5 -20
      vertex 19 25 -20
      vertex 3 35.5 -20
    endloop
  endfacet
  facet normal -0 0 1
    outer loop
      vertex 3 35.5 -20
      vertex 19 25 -20
      vertex 26 35.5 -20
    endloop
  endfacet
  facet normal -0 0 1
    outer loop
      vertex 19 -25 -20
      vertex 26 -35.5 -20
      vertex 26 -25 -20
    endloop
  endfacet
  facet normal 0 0 1
    outer loop
      vertex 19 25 -20
      vertex 3 10.5 -20
      vertex 19 -25 -20
    endloop
  endfacet
  facet normal 0 0 1
    outer loop
      vertex -26 -35.5 -20
      vertex 3 10.5 -20
      vertex -26 10.5 -20
    endloop
  endfacet
  facet normal 0 0 1
    outer loop
      vertex 3 10.5 -20
      vertex -26 -35.5 -20
      vertex 19 -25 -20
    endloop
  endfacet
  facet normal 0 0 1
    outer loop
      vertex 19 -25 -20
      vertex -26 -35.5 -20
      vertex 26 -35.5 -20
    endloop
  endfacet
  facet normal -1 0 0
    outer loop
      vertex 26 25 -20
      vertex 26 35.5 -0.000999451
      vertex 26 35.5 -20
    endloop
  endfacet
  facet normal -1 -0 0
    outer loop
      vertex 26 35.5 -0.000999451
      vertex 26 25 -20
      vertex 26 25 -0.000999451
    endloop
  endfacet
  facet normal -1 0 0
    outer loop
      vertex 26 -35.5 -20
      vertex 26 -25 -0.000999451
      vertex 26 -25 -20
    endloop
  endfacet
  facet normal -1 -0 0
    outer loop
      vertex 26 -25 -0.000999451
      vertex 26 -35.5 -20
      vertex 26 -35.5 -0.000999451
    endloop
  endfacet
  facet normal 0 1 -0
    outer loop
      vertex 26 -35.5 -20
      vertex -26 -35.5 -0.000999451
      vertex 26 -35.5 -0.000999451
    endloop
  endfacet
  facet normal 0 1 0
    outer loop
      vertex -26 -35.5 -0.000999451
      vertex 26 -35.5 -20
      vertex -26 -35.5 -20
    endloop
  endfacet
  facet normal 0 -1 0
    outer loop
      vertex 3 35.5 -20
      vertex 26 35.5 -0.000999451
      vertex 3 35.5 -0.000999451
    endloop
  endfacet
  facet normal 0 -1 -0
    outer loop
      vertex 26 35.5 -0.000999451
      vertex 3 35.5 -20
      vertex 26 35.5 -20
    endloop
  endfacet
  facet normal 1 -0 0
    outer loop
      vertex 19 -25 -20
      vertex 19 25 -22
      vertex 19 25 -20
    endloop
  endfacet
  facet normal 1 0 0
    outer loop
      vertex 19 25 -22
      vertex 19 -25 -20
      vertex 19 -25 -22
    endloop
  endfacet
  facet normal 0 -1 0
    outer loop
      vertex 19 25 -20
      vertex 19 25 -22
      vertex 26 25 -20
    endloop
  endfacet
  facet normal 0 -1 0
    outer loop
      vertex 26 25 -20
      vertex 28 25 -0.000999451
      vertex 26 25 -0.000999451
    endloop
  endfacet
  facet normal 0 -1 0
    outer loop
      vertex 26 25 -20
      vertex 28 25 -22
      vertex 28 25 -0.000999451
    endloop
  endfacet
  facet normal 0 -1 0
    outer loop
      vertex 28 25 -22
      vertex 26 25 -20
      vertex 19 25 -22
    endloop
  endfacet
  facet normal 0 1 0
    outer loop
      vertex 28 -25 -0.000999451
      vertex 26 -25 -20
      vertex 26 -25 -0.000999451
    endloop
  endfacet
  facet normal 0 1 -0
    outer loop
      vertex 28 -25 -22
      vertex 26 -25 -20
      vertex 28 -25 -0.000999451
    endloop
  endfacet
  facet normal 0 1 0
    outer loop
      vertex 19 -25 -22
      vertex 26 -25 -20
      vertex 28 -25 -22
    endloop
  endfacet
  facet normal 0 1 0
    outer loop
      vertex 26 -25 -20
      vertex 19 -25 -22
      vertex 19 -25 -20
    endloop
  endfacet
  facet normal -1 0 0
    outer loop
      vertex 3 37.5 -22
      vertex 3 35.5 -20
      vertex 3 37.5 -0.000999451
    endloop
  endfacet
  facet normal -1 0 0
    outer loop
      vertex 3 10.5 -22
      vertex 3 35.5 -20
      vertex 3 37.5 -22
    endloop
  endfacet
  facet normal -1 -0 0
    outer loop
      vertex 3 35.5 -20
      vertex 3 10.5 -22
      vertex 3 10.5 -20
    endloop
  endfacet
  facet normal -1 -0 0
    outer loop
      vertex 3 37.5 -0.000999451
      vertex 3 35.5 -20
      vertex 3 35.5 -0.000999451
    endloop
  endfacet
  facet normal 0 1 0
    outer loop
      vertex 3 10.5 -20
      vertex 3 10.5 -22
      vertex -26 10.5 -20
    endloop
  endfacet
  facet normal 0 1 -0
    outer loop
      vertex -26 10.5 -20
      vertex -28 10.5 -0.000999451
      vertex -26 10.5 -0.000999451
    endloop
  endfacet
  facet normal 0 1 0
    outer loop
      vertex -26 10.5 -20
      vertex -28 10.5 -22
      vertex -28 10.5 -0.000999451
    endloop
  endfacet
  facet normal 0 1 0
    outer loop
      vertex -28 10.5 -22
      vertex -26 10.5 -20
      vertex 3 10.5 -22
    endloop
  endfacet
  facet normal 0 0 1
    outer loop
      vertex -28 7.63426 -0.000999451
      vertex -26 10.5 -0.000999451
      vertex -28 10.5 -0.000999451
    endloop
  endfacet
  facet normal 0 0 1
    outer loop
      vertex 28 -42 -0.000999451
      vertex 25.8487 -41.2882 -0.000999451
      vertex 26 -42 -0.000999451
    endloop
  endfacet
  facet normal 0 0 1
    outer loop
      vertex 28 -42 -0.000999451
      vertex 25.421 -40.6995 -0.000999451
      vertex 25.8487 -41.2882 -0.000999451
    endloop
  endfacet
  facet normal 0 0 1
    outer loop
      vertex 26 -35.5 -0.000999451
      vertex 24.7908 -40.3357 -0.000999451
      vertex 25.421 -40.6995 -0.000999451
    endloop
  endfacet
  facet normal 0 0 1
    outer loop
      vertex 26 -35.5 -0.000999451
      vertex 24.0671 -40.2596 -0.000999451
      vertex 24.7908 -40.3357 -0.000999451
    endloop
  endfacet
  facet normal 0 0 1
    outer loop
      vertex 26 -35.5 -0.000999451
      vertex 23.375 -40.4845 -0.000999451
      vertex 24.0671 -40.2596 -0.000999451
    endloop
  endfacet
  facet normal -0 0 1
    outer loop
      vertex 11.9988 -37.5 -0.000999451
      vertex 23.375 -40.4845 -0.000999451
      vertex 26 -35.5 -0.000999451
    endloop
  endfacet
  facet normal 0 0 1
    outer loop
      vertex 11.9988 -37.5 -0.000999451
      vertex 22.5382 -42.3638 -0.000999451
      vertex 22.5382 -41.6362 -0.000999451
    endloop
  endfacet
  facet normal 0 0 1
    outer loop
      vertex 22.5382 -42.3638 -0.000999451
      vertex 11.9988 -37.5 -0.000999451
      vertex 22.375 -45.2476 -0.000999451
    endloop
  endfacet
  facet normal 0 0 1
    outer loop
      vertex 22.8342 -40.9714 -0.000999451
      vertex 11.9988 -37.5 -0.000999451
      vertex 22.5382 -41.6362 -0.000999451
    endloop
  endfacet
  facet normal 0 0 1
    outer loop
      vertex 23.375 -40.4845 -0.000999451
      vertex 11.9988 -37.5 -0.000999451
      vertex 22.8342 -40.9714 -0.000999451
    endloop
  endfacet
  facet normal -0 0 1
    outer loop
      vertex -26 -35.5 -0.000999451
      vertex 11.9988 -37.5 -0.000999451
      vertex 26 -35.5 -0.000999451
    endloop
  endfacet
  facet normal 0 0 1
    outer loop
      vertex -28 -7.63426 -0.000999451
      vertex -26 10.5 -0.000999451
      vertex -28 7.63426 -0.000999451
    endloop
  endfacet
  facet normal 0 0 1
    outer loop
      vertex -26 10.5 -0.000999451
      vertex -28 -7.63426 -0.000999451
      vertex -26 -35.5 -0.000999451
    endloop
  endfacet
  facet normal 0 0 1
    outer loop
      vertex -26 -35.5 -0.000999451
      vertex -28 -37.5 -0.000999451
      vertex 11.9988 -37.5 -0.000999451
    endloop
  endfacet
  facet normal 0 0 1
    outer loop
      vertex -28 -37.5 -0.000999451
      vertex -26 -35.5 -0.000999451
      vertex -28 -7.63426 -0.000999451
    endloop
  endfacet
  facet normal -0 0 1
    outer loop
      vertex 26 -35.5 -0.000999451
      vertex 28 -42 -0.000999451
      vertex 28 -25 -0.000999451
    endloop
  endfacet
  facet normal -0 0 1
    outer loop
      vertex 25.421 -40.6995 -0.000999451
      vertex 28 -42 -0.000999451
      vertex 26 -35.5 -0.000999451
    endloop
  endfacet
  facet normal 0 0 1
    outer loop
      vertex 26 -35.5 -0.000999451
      vertex 28 -25 -0.000999451
      vertex 26 -25 -0.000999451
    endloop
  endfacet
  facet normal 0 0 1
    outer loop
      vertex 28 -42 -0.000999451
      vertex 26 -42 -0.000999451
      vertex 27.6758 -43.5253 -0.000999451
    endloop
  endfacet
  facet normal -0 0 1
    outer loop
      vertex 25.8487 -42.7118 -0.000999451
      vertex 27.6758 -43.5253 -0.000999451
      vertex 26 -42 -0.000999451
    endloop
  endfacet
  facet normal 0 0 1
    outer loop
      vertex 27.6758 -43.5253 -0.000999451
      vertex 25.8487 -42.7118 -0.000999451
      vertex 26.7592 -44.7868 -0.000999451
    endloop
  endfacet
  facet normal -0 0 1
    outer loop
      vertex 25.421 -43.3005 -0.000999451
      vertex 26.7592 -44.7868 -0.000999451
      vertex 25.8487 -42.7118 -0.000999451
    endloop
  endfacet
  facet normal 0 0 1
    outer loop
      vertex 25.421 -43.3005 -0.000999451
      vertex 25.4088 -45.5665 -0.000999451
      vertex 26.7592 -44.7868 -0.000999451
    endloop
  endfacet
  facet normal -0 0 1
    outer loop
      vertex 24.7908 -43.6643 -0.000999451
      vertex 25.4088 -45.5665 -0.000999451
      vertex 25.421 -43.3005 -0.000999451
    endloop
  endfacet
  facet normal -0 0 1
    outer loop
      vertex 24.0671 -43.7404 -0.000999451
      vertex 25.4088 -45.5665 -0.000999451
      vertex 24.7908 -43.6643 -0.000999451
    endloop
  endfacet
  facet normal 0 0 1
    outer loop
      vertex 24.0671 -43.7404 -0.000999451
      vertex 23.858 -45.7295 -0.000999451
      vertex 25.4088 -45.5665 -0.000999451
    endloop
  endfacet
  facet normal 0 0 1
    outer loop
      vertex 23.375 -43.5155 -0.000999451
      vertex 23.858 -45.7295 -0.000999451
      vertex 24.0671 -43.7404 -0.000999451
    endloop
  endfacet
  facet normal 0 0 1
    outer loop
      vertex 22.375 -45.2476 -0.000999451
      vertex 23.375 -43.5155 -0.000999451
      vertex 22.8342 -43.0286 -0.000999451
    endloop
  endfacet
  facet normal 0 0 1
    outer loop
      vertex 22.375 -45.2476 -0.000999451
      vertex 22.8342 -43.0286 -0.000999451
      vertex 22.5382 -42.3638 -0.000999451
    endloop
  endfacet
  facet normal 0 0 1
    outer loop
      vertex 23.375 -43.5155 -0.000999451
      vertex 22.375 -45.2476 -0.000999451
      vertex 23.858 -45.7295 -0.000999451
    endloop
  endfacet
  facet normal 0 0 1
    outer loop
      vertex -28 7.63426 -0.000999451
      vertex -30.25 -1.22397e-19 -0.000999451
      vertex -28 -7.63426 -0.000999451
    endloop
  endfacet
  facet normal 0 0 1
    outer loop
      vertex -28 7.63426 -0.000999451
      vertex -30.4013 0.711788 -0.000999451
      vertex -30.25 -1.22397e-19 -0.000999451
    endloop
  endfacet
  facet normal 0 0 1
    outer loop
      vertex -28 7.63426 -0.000999451
      vertex -30.829 1.3005 -0.000999451
      vertex -30.4013 0.711788 -0.000999451
    endloop
  endfacet
  facet normal 0 0 1
    outer loop
      vertex -28 7.63426 -0.000999451
      vertex -31.4592 1.66435 -0.000999451
      vertex -30.829 1.3005 -0.000999451
    endloop
  endfacet
  facet normal -0 0 1
    outer loop
      vertex -33.875 3.24759 -0.000999451
      vertex -31.4592 1.66435 -0.000999451
      vertex -28 7.63426 -0.000999451
    endloop
  endfacet
  facet normal 0 0 1
    outer loop
      vertex -31.4592 1.66435 -0.000999451
      vertex -33.875 3.24759 -0.000999451
      vertex -32.1829 1.74041 -0.000999451
    endloop
  endfacet
  facet normal 0 0 1
    outer loop
      vertex -32.1829 1.74041 -0.000999451
      vertex -33.875 3.24759 -0.000999451
      vertex -32.875 1.51554 -0.000999451
    endloop
  endfacet
  facet normal 0 0 1
    outer loop
      vertex -33.4158 1.02862 -0.000999451
      vertex -35.0338 2.20419 -0.000999451
      vertex -33.7118 0.363845 -0.000999451
    endloop
  endfacet
  facet normal -0 0 1
    outer loop
      vertex -35.0338 2.20419 -0.000999451
      vertex -33.4158 1.02862 -0.000999451
      vertex -33.875 3.24759 -0.000999451
    endloop
  endfacet
  facet normal 0 0 1
    outer loop
      vertex -32.875 1.51554 -0.000999451
      vertex -33.875 3.24759 -0.000999451
      vertex -33.4158 1.02862 -0.000999451
    endloop
  endfacet
  facet normal -0 0 1
    outer loop
      vertex -30.4013 -0.711788 -0.000999451
      vertex -28 -7.63426 -0.000999451
      vertex -30.25 -1.22397e-19 -0.000999451
    endloop
  endfacet
  facet normal -0 0 1
    outer loop
      vertex -30.829 -1.3005 -0.000999451
      vertex -28 -7.63426 -0.000999451
      vertex -30.4013 -0.711788 -0.000999451
    endloop
  endfacet
  facet normal -0 0 1
    outer loop
      vertex -31.4592 -1.66435 -0.000999451
      vertex -28 -7.63426 -0.000999451
      vertex -30.829 -1.3005 -0.000999451
    endloop
  endfacet
  facet normal 0 0 1
    outer loop
      vertex -33.875 -3.24759 -0.000999451
      vertex -31.4592 -1.66435 -0.000999451
      vertex -32.1829 -1.74041 -0.000999451
    endloop
  endfacet
  facet normal 0 0 1
    outer loop
      vertex -33.875 -3.24759 -0.000999451
      vertex -32.1829 -1.74041 -0.000999451
      vertex -32.875 -1.51554 -0.000999451
    endloop
  endfacet
  facet normal 0 0 1
    outer loop
      vertex -33.875 -3.24759 -0.000999451
      vertex -32.875 -1.51554 -0.000999451
      vertex -33.4158 -1.02862 -0.000999451
    endloop
  endfacet
  facet normal 0 0 1
    outer loop
      vertex -31.4592 -1.66435 -0.000999451
      vertex -33.875 -3.24759 -0.000999451
      vertex -28 -7.63426 -0.000999451
    endloop
  endfacet
  facet normal 0 0 1
    outer loop
      vertex -35.0338 -2.20419 -0.000999451
      vertex -33.4158 -1.02862 -0.000999451
      vertex -33.7118 -0.363845 -0.000999451
    endloop
  endfacet
  facet normal -0 0 1
    outer loop
      vertex -35.6681 0.779669 -0.000999451
      vertex -33.7118 0.363845 -0.000999451
      vertex -35.0338 2.20419 -0.000999451
    endloop
  endfacet
  facet normal 0 0 1
    outer loop
      vertex -33.7118 0.363845 -0.000999451
      vertex -35.6681 0.779669 -0.000999451
      vertex -33.7118 -0.363845 -0.000999451
    endloop
  endfacet
  facet normal 0 0 1
    outer loop
      vertex -33.4158 -1.02862 -0.000999451
      vertex -35.0338 -2.20419 -0.000999451
      vertex -33.875 -3.24759 -0.000999451
    endloop
  endfacet
  facet normal 0 0 1
    outer loop
      vertex -35.6681 -0.779669 -0.000999451
      vertex -33.7118 -0.363845 -0.000999451
      vertex -35.6681 0.779669 -0.000999451
    endloop
  endfacet
  facet normal 0 0 1
    outer loop
      vertex -33.7118 -0.363845 -0.000999451
      vertex -35.6681 -0.779669 -0.000999451
      vertex -35.0338 -2.20419 -0.000999451
    endloop
  endfacet
  facet normal 0 0 1
    outer loop
      vertex 25.421 40.6995 -0.000999451
      vertex 28 42 -0.000999451
      vertex 25.8487 41.2882 -0.000999451
    endloop
  endfacet
  facet normal 0 0 1
    outer loop
      vertex 28 42 -0.000999451
      vertex 25.421 40.6995 -0.000999451
      vertex 26 35.5 -0.000999451
    endloop
  endfacet
  facet normal -0 0 1
    outer loop
      vertex 24.7908 40.3357 -0.000999451
      vertex 26 35.5 -0.000999451
      vertex 25.421 40.6995 -0.000999451
    endloop
  endfacet
  facet normal -0 0 1
    outer loop
      vertex 24.0671 40.2596 -0.000999451
      vertex 26 35.5 -0.000999451
      vertex 24.7908 40.3357 -0.000999451
    endloop
  endfacet
  facet normal 0 0 1
    outer loop
      vertex 23.375 40.4845 -0.000999451
      vertex 26 35.5 -0.000999451
      vertex 24.0671 40.2596 -0.000999451
    endloop
  endfacet
  facet normal 0 0 1
    outer loop
      vertex 11.9988 37.5 -0.000999451
      vertex 23.375 40.4845 -0.000999451
      vertex 22.8342 40.9714 -0.000999451
    endloop
  endfacet
  facet normal 0 0 1
    outer loop
      vertex 22.5382 42.3638 -0.000999451
      vertex 11.9988 37.5 -0.000999451
      vertex 22.5382 41.6362 -0.000999451
    endloop
  endfacet
  facet normal 0 0 1
    outer loop
      vertex 11.9988 37.5 -0.000999451
      vertex 22.8342 40.9714 -0.000999451
      vertex 22.5382 41.6362 -0.000999451
    endloop
  endfacet
  facet normal 0 0 1
    outer loop
      vertex 23.375 40.4845 -0.000999451
      vertex 11.9988 37.5 -0.000999451
      vertex 26 35.5 -0.000999451
    endloop
  endfacet
  facet normal 0 0 1
    outer loop
      vertex 3 35.5 -0.000999451
      vertex 11.9988 37.5 -0.000999451
      vertex 3 37.5 -0.000999451
    endloop
  endfacet
  facet normal 0 0 1
    outer loop
      vertex 11.9988 37.5 -0.000999451
      vertex 3 35.5 -0.000999451
      vertex 26 35.5 -0.000999451
    endloop
  endfacet
  facet normal 0 0 1
    outer loop
      vertex 27.6758 43.5253 -0.000999451
      vertex 25.8487 42.7118 -0.000999451
      vertex 26 42 -0.000999451
    endloop
  endfacet
  facet normal 0 0 1
    outer loop
      vertex 26.7592 44.7868 -0.000999451
      vertex 25.421 43.3005 -0.000999451
      vertex 25.8487 42.7118 -0.000999451
    endloop
  endfacet
  facet normal 0 0 1
    outer loop
      vertex 25.4088 45.5665 -0.000999451
      vertex 25.421 43.3005 -0.000999451
      vertex 26.7592 44.7868 -0.000999451
    endloop
  endfacet
  facet normal 0 0 1
    outer loop
      vertex 25.4088 45.5665 -0.000999451
      vertex 24.7908 43.6643 -0.000999451
      vertex 25.421 43.3005 -0.000999451
    endloop
  endfacet
  facet normal 0 0 1
    outer loop
      vertex 25.4088 45.5665 -0.000999451
      vertex 24.0671 43.7404 -0.000999451
      vertex 24.7908 43.6643 -0.000999451
    endloop
  endfacet
  facet normal 0 0 1
    outer loop
      vertex 23.858 45.7295 -0.000999451
      vertex 24.0671 43.7404 -0.000999451
      vertex 25.4088 45.5665 -0.000999451
    endloop
  endfacet
  facet normal 0 0 1
    outer loop
      vertex 23.858 45.7295 -0.000999451
      vertex 23.375 43.5155 -0.000999451
      vertex 24.0671 43.7404 -0.000999451
    endloop
  endfacet
  facet normal -0 0 1
    outer loop
      vertex 22.375 45.2476 -0.000999451
      vertex 23.375 43.5155 -0.000999451
      vertex 23.858 45.7295 -0.000999451
    endloop
  endfacet
  facet normal 0 0 1
    outer loop
      vertex 23.375 43.5155 -0.000999451
      vertex 22.375 45.2476 -0.000999451
      vertex 22.8342 43.0286 -0.000999451
    endloop
  endfacet
  facet normal 0 0 1
    outer loop
      vertex 11.9988 37.5 -0.000999451
      vertex 22.5382 42.3638 -0.000999451
      vertex 22.375 45.2476 -0.000999451
    endloop
  endfacet
  facet normal 0 0 1
    outer loop
      vertex 22.8342 43.0286 -0.000999451
      vertex 22.375 45.2476 -0.000999451
      vertex 22.5382 42.3638 -0.000999451
    endloop
  endfacet
  facet normal 0 0 1
    outer loop
      vertex 26 42 -0.000999451
      vertex 28 42 -0.000999451
      vertex 27.6758 43.5253 -0.000999451
    endloop
  endfacet
  facet normal 0 0 1
    outer loop
      vertex 25.8487 42.7118 -0.000999451
      vertex 27.6758 43.5253 -0.000999451
      vertex 26.7592 44.7868 -0.000999451
    endloop
  endfacet
  facet normal 0 0 1
    outer loop
      vertex 25.8487 41.2882 -0.000999451
      vertex 28 42 -0.000999451
      vertex 26 42 -0.000999451
    endloop
  endfacet
  facet normal 0 0 1
    outer loop
      vertex 28 42 -0.000999451
      vertex 26 35.5 -0.000999451
      vertex 28 25 -0.000999451
    endloop
  endfacet
  facet normal 0 0 1
    outer loop
      vertex 28 25 -0.000999451
      vertex 26 35.5 -0.000999451
      vertex 26 25 -0.000999451
    endloop
  endfacet
endsolid OpenSCAD_Model
